<svg xmlns="http://www.w3.org/2000/svg" xmlns:svgjs="http://svgjs.com/svgjs" xmlns:xlink="http://www.w3.org/1999/xlink" width="288" height="288"><svg xmlns="http://www.w3.org/2000/svg" width="288" height="288" version="1.0" viewBox="0 0 1121 642"><g fill="#d83780" class="color000 svgShape" transform="matrix(.1 0 0 -.1 0 642)"><path d="M5880 6250c0-60-4-110-8-110-5 0-15 32-22 70-13 67-24 90-37 76-6-6 12-120 23-151 3-8 2-15-3-15-5 0-31 45-58 100-26 55-54 100-61 100-8 0-14-2-14-4 0-2 25-56 55-121 46-98 58-115 70-105 7 6 38 13 66 14l53 2 18 69c21 83 23 118 6 113-7-3-22-40-33-84l-20-79-3 118c-2 95-5 117-17 117-12 0-15-20-15-110zM6321 6314c-11-14-11-18 3-32 15-15 17-15 32 0 15 15 15 18 1 32-19 19-19 19-36 0zM6455 6298c-6-13-20-27-32-33-29-13-29-23 1-36 13-6 29-23 35-37l12-25 19 31c11 18 26 32 34 32 28 0 26 19-3 34-16 9-32 25-36 36-8 26-18 25-30-2zM6017 6199c-54-101-57-111-39-116 11-2 25-16 32-29 8-13 17-24 22-24 4 0 8-7 8-15 0-21 20-19 97 11 79 31 91 40 77 54-7 7-34 1-84-20-40-17-74-29-76-27-2 1 39 34 91 72 52 37 95 72 95 76 0 23-26 12-106-45-49-36-91-63-93-61-2 2 17 27 43 56 43 48 58 79 37 79-5 0-33-27-62-60-29-33-54-58-57-56-2 3 19 48 47 100 53 99 59 116 39 116-7 0-39-50-71-111zM7094 6235c-161-35-289-151-343-313-20-59-21-83-21-582l0-520 468 2 467 3 3 490c1 300-2 511-8 544-26 140-127 274-254 336-111 54-196 65-312 40zm61-108c-45-82-55-117-34-117 15 0 59-51 59-67 0-18 9-17 99 19 46 17 81 37 81 45 0 19-18 16-89-13-35-14-65-23-67-21-3 3 119 95 170 129 8 5 7 11-1 19-9 9-32-3-96-50-47-33-88-61-92-61-4 0 16 27 44 59 36 41 48 62 40 67-8 5-32-14-65-49-29-31-56-57-59-57-3 0 15 41 41 91l47 91 46-6c117-16 250-116 309-232 43-86 54-156 50-339l-3-160-147-3-148-3 0-74 0-75-55 0-54 0-3-77-3-78-67-3-68-3 0-74 0-75-70 0-69 0-3-77-3-78-95 0-95 0-3 392-2 392 80 62c44 34 80 64 80 67 0 2-9 17-21 33-11 16-18 29-14 29 3 0 3 6-2 13-4 6-6 20-5 29 2 13-6 17-43 20-25 2-45 8-45 13 1 10 11 11 65 4 24-3 30 0 29 14-1 9 2 17 7 17 5 0 9 7 9 15 0 8 5 15 10 15 6 0 10 7 10 15 0 8 7 15 15 15 21 0 19 11-10 50-27 36-31 50-15 50 5 0 19-18 30-40 20-40 30-47 44-32 4 4 31 7 59 7l51 1 21 84c20 80 23 85 51 91 16 3 32 4 36 2 4-2-13-40-37-86zm-71 41c-3-18-12-51-19-73l-13-40-1 66c-1 68 3 79 26 79 11 0 13-8 7-32zm-64-50c-1-58-13-51-25 15-6 30-4 37 9 37 13 0 16-11 16-52zm-50-19c15-55 6-60-19-11-19 37-19 52 0 52 5 0 13-18 19-41zm-79-71c9-16 8-19-3-13-28 16-38 28-32 36 7 12 21 3 35-23zm-31-33c16-19 0-19-26 0-16 12-16 14-3 15 9 0 22-7 29-15zm-20-40c18-10 20-14 8-15-23 0-48 11-48 21 0 12 11 11 40-6zm-10-105c-36-12-70-12-70 0 0 6 21 10 48 9 38-1 42-2 22-9zm17-37c-4-3-25-14-47-24-33-15-40-16-40-4 0 8 12 17 28 21 15 3 32 7 37 9 18 6 29 5 22-2zm-2-59c-55-46-82-63-89-57-17 17-1 36 47 58 67 31 79 30 42-1zm795-374l0-60-135 0-135 0 0 60 0 60 135 0 135 0 0-60zm-5-155l0-60-185 0-185 0-3 63-3 62 188-2 188-3 0-60zm5-155l0-60-260 0-260 0 0 60 0 60 260 0 260 0 0-60zm-5-155l0-60-325 0-325 0-3 49c-5 82-31 77 330 74l323-3 0-60z" class="color000 svgShape"/><path d="M6942 5976c-36-33-37-37-37-101 0-64 1-68 37-101 32-29 45-34 86-34 26 0 56 6 67 14 16 12 13 14-31 19-38 4-54 12-76 36-60 67-19 158 76 168 44 5 47 7 31 19-11 8-41 14-67 14-41 0-54-5-86-34zM7304 5941c-105-23-120-29-107-42 8-8 7-24-3-58-7-25-14-49-14-53 0-8 143-88 159-88 31 0 3 29-60 63-39 22-69 41-67 43 2 2 52-10 111-25 67-19 109-26 113-19 10 17-8 26-96 48-119 30-132 42-39 35 53-5 79-3 84 5 11 18 1 21-84 27-45 3-79 8-76 11 2 3 53 15 112 26 60 12 108 26 111 34 5 16-43 14-144-7zM7150 5762c0-10-61-46-80-47-18 0-18 1-1-102 10-62 17-83 29-83 15 0 15 8-4 125-9 56 2 40 50-66 23-51 47-94 54-97 19-6 14 21-19 94-38 83-50 114-44 114 2 0 25-27 51-61 31-41 50-57 57-50 6 6-5 31-37 75-26 36-44 66-40 66 4 0 42-29 86-65 74-60 108-78 108-56 0 4-42 43-92 85-85 70-118 89-118 68zM6856 5686c-31-35-56-68-56-75 0-26 28-7 74 49 27 33 51 58 53 56 3-2-18-49-46-104-46-92-51-112-29-112 4 0 29 43 55 95 26 52 51 95 54 95 4 0-1-33-12-72-22-88-22-88-5-88 8 0 20 26 31 68 29 109 34 105 35-26 0-94 3-123 13-120 8 3 13 41 15 129l3 125-51 13c-27 7-52 17-56 22-10 17-23 9-78-55zM5670 6209c0-6 21-37 46-70 25-33 45-62 43-64-2-2-42 28-89 66-47 37-91 68-97 69-30 0-7-29 68-88 44-35 78-66 76-69-3-2-33 10-66 27-57 28-90 32-75 9 3-5 37-25 76-45 38-19 68-37 66-39-2-2-52 8-112 22-78 18-111 22-119 14-6-6-8-13-6-16 10-10 232-56 245-51 8 3 11 12 8 21-3 8-1 15 5 15 6 0 11 5 11 11 0 7 12 22 26 34l26 22-53 72c-49 65-79 88-79 60zM6380 6185c-11-13-11-19 2-32 17-16 38-10 38 11 0 8-6 19-14 25-10 9-16 8-26-4zM5833 6065c-55-24-89-98-72-159 22-80 92-120 169-97 43 13 55 34 18 31-51-5-71 1-99 29-23 23-29 38-29 71 0 33 6 48 29 71 28 28 48 34 99 29 33-2 27 16-9 29-41 14-67 13-106-4zM6161 6006l-105-21-2-53c-1-28-7-58-13-66-9-11-3-19 31-39 107-61 138-72 138-46 0 4-33 26-72 48-85 47-76 50 47 16 104-29 115-30 115-11 0 9-29 21-82 35-139 37-142 39-50 40 62 1 83 4 80 14-3 7-32 14-80 17-42 3-79 8-82 11-3 3 38 14 92 23 104 20 136 31 127 47-8 12-21 11-144-15zM5540 5945c0-12 15-15 81-15 82 0 98-12 32-25-116-20-173-38-173-51 0-18 2-18 116 7 53 11 98 18 100 16 3-2-25-17-61-33-36-16-65-34-65-41 0-20 22-16 105 22 61 28 75 38 66 49-6 7-12 28-14 47l-2 34-93 3c-77 2-92 0-92-13zM4630 5899c-125-25-370-88-425-109-22-9-24-7-27 31-4 55-22 54-26-2l-3-46-137-53c-161-62-352-150-352-161 0-23 29-17 107 21 79 38 297 128 351 145 20 6 22 3 22-37 0-63-62-912-76-1035-4-43-3-53 9-53 10 0 17 15 21 48 7 58 52 647 69 906l12 189 70 24c86 29 309 86 430 109 93 17 116 27 100 42-6 5-70-3-145-19zM5647 5774c-86-67-108-94-76-94 17 0 200 151 194 161-10 16-19 11-118-67zM6010 5825c0-8-7-15-15-15-8 0-15-4-15-10 0-5-16-12-36-16-30-5-35-10-30-28 3-11 10-54 17-93 9-52 16-73 27-73 12 0 13 9 8 43-4 23-9 62-12 87l-5 45 16-30c8-16 31-65 50-107 19-43 39-78 45-78 18 0 11 25-31 120-22 50-39 93-37 96 3 2 24-23 48-56 24-33 47-60 51-60 22 0 14 24-27 80-25 34-44 64-42 66 2 2 43-28 91-67 47-39 91-68 97-64 15 9 7 19-92 100-93 77-108 86-108 60z" class="color000 svgShape"/><path d="M5716 5755c-41-46-56-71-51-83 5-13 18-4 65 48 33 36 59 62 60 59 0-3-23-50-51-103-38-71-48-101-40-109 14-14 11-18 66 93 51 100 67 107 41 16-20-66-20-76-2-76 9 0 20 25 31 70 9 39 21 73 26 76 5 3 9-46 9-111 0-89 3-116 13-113 8 3 13 41 15 131 3 127 3 127-20 125-25-2-88 22-88 34 0 19-21 3-74-57zM5402 5536c-6-14-23-28-37-32-30-8-32-20-4-29 11-4 29-21 39-38l19-31 10 27c6 15 22 32 36 39 27 12 33 28 11 28-8 0-25 14-38 31l-24 30-12-25zM4250 5474c-6-14-8-29-6-33 3-4-4-92-14-196-29-287-26-298 39-162 22 45 47 91 55 102 15 20 15 20 16 0 0-29 28-65 50-65 10 0 28 12 39 26 19 24 21 25 43 10 29-20 82-21 98-1 18 21-3 46-22 27-17-17-42-15-62 7-13 14-15 29-10 75 6 46 4 56-8 56-16 0-28-28-28-67 0-12-8-38-17-58-23-48-47-43-51 12-2 23-9 47-17 53-14 12-18 7-79-93-10-16-19-27-22-25-2 3 3 69 11 149 17 172 18 209 5 209-6 0-15-12-20-26zM6214 5486c-12-9-27-29-34-46-15-36-30-39-30-5 0 31-32 50-59 35-18-9-71-106-71-129 0-25-197-79-245-67l-28 7 30 18c62 39 88 95 63 142-8 14-21 19-55 19-40 0-51-6-100-50-30-27-64-50-74-50-27 0-69-37-91-80-27-53-72-88-123-94-32-5-268-15-341-16-18 0 8-278 28-298 4-3 67 5 141 17 103 17 154 21 213 16 66-6 93-3 178 19 166 43 388 115 414 134 14 10 66 46 115 79 84 57 94 68 152 161 34 55 65 111 69 126 9 36-19 45-56 17-16-11-31-21-34-21-3 0-6 17-8 37-3 43-21 52-54 29zm-4-158c-23-73-40-106-71-142-35-40-99-86-99-72 0 19 43 96 65 116 26 23 95 151 95 175 0 6 8 22 18 35 16 24 17 24 20 4 2-11-11-64-28-116zm-93 82c-7-35-71-207-99-268-29-60-53-75-191-121-225-74-307-91-405-85-61 5-113 2-173-10-47-9-99-16-116-16-37 0-39 7-49 136l-7 91 108 6c60 4 136 7 169 7 90 0 141 29 187 105 30 50 43 62 82 76 26 9 62 34 85 58 29 31 47 41 70 41 36 0 46-12 38-46-9-34-92-87-117-74-30 16-34-9-6-37 42-42 169-41 270 2 18 7 17 5-2-33-34-67-53-74-193-74-68 0-133-4-146-9-27-11-24-36 4-31 10 2 67 5 125 6 97 1 106 0 101-16-6-26 11-22 39 8 21 23 25 24 36 9 15-21 33-11 33 18 0 12 20 56 44 98 23 42 48 91 55 110 25 72 70 110 58 49zm158-85c-26-42-49-75-51-73-2 2 2 21 8 41 12 38 76 122 85 113 3-3-16-39-42-81zM5472 5424c-11-12-10-17 3-31 15-14 18-14 32 0 13 13 14 19 3 31-15 19-21 19-38 0zM5343 5364c-3-8 1-22 9-30 13-13 16-13 27 0 7 9 11 23 7 31-7 20-35 19-43-1zM9078 4721c-141-45-245-151-300-303-23-62-23-67-23-578l0-515 470 0 470 0 3 480c2 317-1 502-8 545-30 173-156 320-321 371-80 25-213 25-291 0zm106-93c-44-84-53-118-33-118 15 0 59-51 59-67 0-19 12-16 100 19 44 18 80 39 80 45 0 19-19 16-89-13-35-14-65-23-67-21-2 2 31 29 75 61 91 65 107 81 91 91-6 4-49-21-95-54-46-34-86-61-90-61-4 0 16 27 44 59 36 41 48 62 40 67-8 5-32-14-65-49-29-31-56-57-59-57-3 0 15 41 41 91l47 91 41-6c64-10 176-68 228-118 109-106 140-211 136-453l-3-160-147-3-148-3 0-74 0-74-52-3-53-3-5-75-5-75-67-3-68-3 0-74 0-74-67-3-68-3-3-78-3-78-97 3-97 3-3 392-2 392 80 62c44 34 80 66 80 71 0 5-7 11-15 14-8 4-13 10-10 14 3 5 1 11-5 15-6 4-8 10-5 15 3 5 1 11-4 14-5 3-7 15-4 25 4 17-1 20-41 23-26 2-46 8-46 13 1 10 11 11 65 4 24-3 30 0 29 14-1 9 2 17 7 17 5 0 9 7 9 15 0 8 5 15 10 15 6 0 10 7 10 15 0 8 7 15 15 15 21 0 19 11-10 50-29 39-28 37-15 45 5 3 18-12 30-35 20-39 33-49 44-31 3 5 29 8 58 8l52-2 18 75c26 104 24 100 61 100l34 0-43-82zm-70 40c-3-18-12-51-19-73l-13-40-1 67c-1 63 4 74 32 77 5 1 5-14 1-31zm-64-48c0-27-2-50-5-50-8 0-26 80-20 90 14 23 25 6 25-40zm-50-21c6-23 9-43 6-46-8-8-38 58-32 73 9 23 15 17 26-27zm-79-71c9-16 8-19-3-13-28 16-38 28-32 36 7 12 21 3 35-23zm-31-33c16-19 0-19-26 0-16 12-16 14-3 15 9 0 22-7 29-15zm-20-40c18-10 20-14 8-15-23 0-48 11-48 21 0 12 11 11 40-6zm-10-105c-36-12-70-12-70 0 0 6 21 10 48 9 38-1 42-2 22-9zm-20-54c-25-13-49-22-53-19-14 8 8 24 45 33 54 13 55 10 8-14zm35-42c-55-46-82-63-89-57-17 17-1 36 47 58 67 31 79 30 42-1zm795-374l0-60-135 0-135 0 0 60 0 60 135 0 135 0 0-60zm-5-155l0-60-187-3-188-2 0 58c0 32 3 62 7 66 4 3 88 5 187 4l181-3 0-60zm5-155l0-60-260 0-260 0 0 60 0 60 260 0 260 0 0-60zm-2-157l-3-58-327-3-328-2 0 60 0 60 330 0 331 0-3-57z" class="color000 svgShape"/><path d="M9004 4500c-11-4-33-23-48-41-25-30-28-39-24-92 6-78 42-117 115-124 88-9 153 47 153 132 0 98-102 163-196 125zM9334 4441c-105-23-120-29-107-42 8-8 7-24-3-58-7-25-14-49-14-53 0-4 34-25 76-48 55-31 79-39 87-31 13 13 17 10-66 56-37 20-66 39-64 41 2 2 51-10 110-25 67-19 109-26 113-19 10 16-7 25-96 48-121 32-129 41-36 38 52-2 80 1 83 8 5 14-43 24-115 24-30 0-52 3-49 6 4 4 55 16 113 28 59 12 109 27 112 34 5 16-44 14-144-7z" class="color000 svgShape"/><path d="M9180 4262c0-10-61-46-80-47-18 0-18 1-1-102 10-62 17-83 29-83 15 0 15 8-4 125-9 56 2 40 50-66 23-51 47-94 54-97 20-6 14 22-19 95-60 133-60 140 2 58 23-30 48-55 56-55 20 0 12 19-38 85-23 31-40 57-38 60 3 2 42-28 88-66 77-64 111-82 111-59 0 5-41 43-92 85-84 69-118 88-118 67zM8886 4186c-31-35-56-68-56-75 0-26 28-7 74 49 27 33 51 58 53 56 3-2-18-49-46-104-46-92-51-112-29-112 4 0 29 43 55 95 26 52 51 95 54 95 4 0-1-32-11-72-11-39-17-75-14-80 12-19 22-4 39 60 29 109 34 105 35-26 0-94 3-123 13-120 8 3 13 41 15 129l3 125-51 13c-27 7-50 17-50 22 0 25-34 3-84-55zM690 4583c-25-9-60-27-79-41l-33-25-38 22c-47 26-50 26-50-1 0-13-8-36-18-53-10-16-22-43-26-58-9-36 18-133 40-145 14-8 13-13-7-45-13-20-28-35-34-33-61 26-88 29-156 16-70-13-71-14-65-42 6-30 53-96 95-133l24-22-47-6c-57-8-86-23-86-43 0-33 52-116 86-136 33-20 34-21 18-39-12-13-17-38-18-81l-1-63 40-1c66-1 72-9 90-114 9-52 30-133 46-180 17-47 33-92 35-101 5-13-5-17-52-22-150-15-307-146-368-305-20-55-21-73-24-584l-3-528 471 0 470 0 0 508c0 553-2 572-58 676-61 114-211 219-332 233-30 3-60 10-67 15-24 19-80 194-98 306l-7 44 26-17c25-17 29-17 68 1 73 33 86 112 28 174-22 24-36 30-68 30-53 0-66 17-57 79l7 49 39-5c32-5 44-1 64 17 14 13 25 34 25 46 0 32 17 74 31 74 28 0 69 45 102 115 21 42 37 80 37 86 0 5-10 9-22 9-13 0-40 5-61 11l-38 10 25 24c14 13 26 29 26 36 0 6 13 27 30 45 32 38 60 118 60 176 0 43-4 44-70 21zm-137-109c-7-19-23-7-23 18 0 17 3 18 14 8 8-6 12-18 9-26zm62 26c3-5 1-10-4-10-6 0-11 5-11 10 0 6 2 10 4 10 3 0 8-4 11-10zm70-100c-3-5-14-10-23-10-15 0-15 2-2 10 20 13 33 13 25 0zm-65-14c0-16-28-42-36-33-8 7 14 47 26 47 6 0 10-6 10-14zm-30-76c0-5-5-10-11-10-5 0-7 5-4 10 3 6 8 10 11 10 2 0 4-4 4-10zm77-166c-3-3-12-4-19-1-8 3-5 6 6 6 11 1 17-2 13-5zm-52-14c3-5 2-10-4-10-5 0-13 5-16 10-3 6-2 10 4 10 5 0 13-4 16-10zm-30-28c-3-3-11 0-18 7-9 10-8 11 6 5 10-3 15-9 12-12zm-38-12c14-11 20-20 14-20-19 0-51 19-51 30 0 15 9 12 37-10zm-157-34c0-3-4-8-10-11-5-3-10-1-10 4 0 6 5 11 10 11 6 0 10-2 10-4zm123-123c-7-2-19-2-25 0-7 3-2 5 12 5 14 0 19-2 13-5zm-134-247c-12-10-59-15-59-6 0 5 14 10 32 10 17 0 29-2 27-4zm121-76c13-8 13-10-2-10-9 0-20 5-23 10-8 13 5 13 25 0zm28-407c-2-5-23-46-47-92l-43-84 24-18c12-10 26-19 31-19 4 0 7-7 7-15 0-8 5-15 10-15 6 0 10-7 10-15 0-8 4-15 9-15 13 0 154 60 165 71 23 21-27 18-84-5-35-14-68-26-74-26-6 0 31 30 82 67 51 36 92 72 92 80 0 20-19 16-59-15-72-56-141-104-141-98 0 3 23 31 50 61 27 30 50 60 50 65 0 24-29 6-77-47-29-32-52-53-52-48 0 6 19 46 42 90 41 78 43 80 78 78 132-7 284-128 341-271 20-51 23-78 26-259l3-203-150 0-151 0 0-74 0-75-52-3-53-3-3-77-3-77-67-3-67-3-3-72-3-72-67-3-67-3-3-77-3-78-94 0-95 0 0 398 1 397 65 50c87 67 87 66 68 103-8 18-17 44-18 59-3 25-8 29-46 33-24 3-45 11-48 18-4 14 0 14 51 3 35-9 38-7 53 24 8 18 24 42 34 53 25 27 25 29-5 67-22 29-24 45-5 45 4 0 15-18 25-40 16-35 45-55 45-31 0 4 25 8 54 7l55-1 22 87 21 88 35 0c19 0 33-3 31-7zm-116-68c-9-36-19-65-24-65-4 0-8 27-8 59 0 59 2 62 41 70 4 0-1-28-9-64zm-63-17l-1-53-12 45c-13 46-12 60 5 60 5 0 9-24 8-52zm-45-9c11-56 6-65-15-26-19 35-18 57 0 57 5 0 11-14 15-31zm-81-74c10-14 15-25 11-25-11 0-44 32-44 42 0 15 15 8 33-17zm-27-40c10-8 14-15 8-15-5 0-19 7-30 15-10 8-14 15-8 15 5 0 19-7 30-15zm-16-40c15-8 19-14 10-15-26 0-60 12-60 21 0 13 21 10 50-6zm-15-105c-28-12-78-12-70 0 3 6 25 10 48 9 33 0 38-2 22-9zm12-41c-9-5-33-17-52-25-30-12-35-12-35 0 0 13 52 33 90 35 11 0 11-2-3-10zm-21-74c-32-25-60-45-62-45-2 0-4 10-4 23 0 17 12 27 48 44 74 34 80 27 18-22zm814-355l0-60-135 0-135 0 0 60 0 60 135 0 135 0 0-60zm-2-158l3-62-188 2-188 3-3 49c-5 81-15 77 190 74l183-3 3-63zm2-152l0-60-260 0-260 0 0 53c0 30 3 57 7 60 3 4 120 7 260 7l253 0 0-60zm0-160l0-60-327 2-328 3-3 58-3 57 331 0 330 0 0-60z" class="color000 svgShape"/><path d="M294 2991c-34-21-64-75-64-116 0-41 30-95 64-117 47-29 127-21 166 17 61 59 59 148-5 204-29 25-44 31-83 31-28 0-59-8-78-19zM680 2950c-19-4-60-13-91-20l-57-11 1-51c0-31-4-53-11-56-28-9-7-31 65-70 84-46 93-49 93-28 0 8-32 32-70 53-39 21-67 39-63 40 4 2 55-10 113-26 66-19 109-26 115-20 15 15-4 24-100 49-126 32-136 42-37 35 66-4 82-3 82 9 0 16-42 26-119 27-71 0-49 10 82 34 64 13 97 23 97 32 0 15-44 16-100 3zM490 2760c0-5-7-10-15-10-8 0-15-4-15-9 0-4-15-12-32-18-31-9-33-12-31-49 5-73 24-144 39-144 8 0 14 1 14 3 0 1-7 38-15 81-24 124-16 115 67-76 11-27 27-48 34-48 20 0 18 9-22 96-66 144-66 153 1 60 37-52 65-71 65-44 0 6-17 34-38 62-44 59-55 76-49 76 3 0 43-31 89-70 45-38 89-70 96-70 29 0 5 30-78 98-85 69-110 84-110 62zM187 2683c-39-47-54-70-46-78 7-7 28 10 70 55l60 65-51-102c-53-109-57-123-37-123 7 0 34 43 60 96 27 53 50 94 53 91 3-3-2-32-10-65-19-72-20-95-4-90 6 2 21 39 32 82 12 42 24 74 28 71 4-4 4-55 1-114-4-79-3-110 6-116 7-4 14-5 15-4 2 2 6 60 9 129l6 126-52 12c-29 7-53 17-55 22-8 23-32 6-85-57zM6295 4582c-28-10-65-27-82-40-38-27-37-27-72-1-32 23-51 19-51-12 0-10-9-36-20-56-11-21-20-55-20-76 0-45 23-105 44-113 13-5 11-13-11-45-27-41-33-45-49-29-24 24-175 16-207-10-14-12 22-78 72-129 40-41 46-51 30-51-37 0-108-22-113-35-8-23 40-110 79-141l37-30-21-34c-16-26-19-44-14-75 8-54 18-65 51-56 53 15 67-2 80-95 18-123 81-314 103-314 14 0 11 11-16 79-29 71-65 212-65 255 0 28 1 28 19 12 22-20 55-14 95 17 21 17 29 34 33 67 4 39 0 50-27 83-26 31-38 37-70 37-49 0-62 17-58 76l3 48 47-3c44-2 49 0 68 31 11 18 20 47 20 65 0 23 6 33 20 38 40 13 82 59 110 123 17 35 30 70 30 76 0 7-28 18-62 25l-63 13 28 20c15 11 27 26 27 34 0 8 9 22 21 32 39 32 76 131 75 196-1 37-10 39-71 18zm-138-88c3-8 1-20-6-27-8-8-11-8-11 0 0 6-3 18-6 27-3 9-1 16 5 16 7 0 14-7 18-16zm-42-24c3-5 1-10-4-10-6 0-11 5-11 10 0 6 2 10 4 10 3 0 8-4 11-10zm170-70c-3-5-14-10-23-9-14 0-13 2 3 9 27 11 27 11 20 0zm-55-12c-1-14-50-54-50-41 0 14 30 53 41 53 5 0 9-6 9-12zm-35-78c-3-5-12-10-18-10-7 0-6 4 3 10 19 12 23 12 15 0zm30-188c-3-3-11 0-18 7-9 10-8 11 6 5 10-3 15-9 12-12zm-34-19c13-17 13-17-6-3-11 8-22 16-24 17-2 2 0 3 6 3 6 0 17-8 24-17zm-40-13c14-11 18-19 11-20-19 0-52 19-52 30 0 16 16 12 41-10zm-156-40c-3-5-11-10-16-10-6 0-7 5-4 10 3 6 11 10 16 10 6 0 7-4 4-10zm118-117c-7-2-19-2-25 0-7 3-2 5 12 5 14 0 19-2 13-5zm-146-39c-3-3-12-4-19-1-8 3-5 6 6 6 11 1 17-2 13-5zm22-208c-11-9-69-14-69-6 0 6 17 10 37 10 20 0 34-2 32-4zm121-82c0-2-7-4-15-4-8 0-15 4-15 10 0 5 7 7 15 4 8-4 15-8 15-10zM4020 4558c0-7 70-89 156-183 86-93 173-189 195-212 32-35 46-43 86-47 174-21 183-24 250-67 36-24 76-59 89-81 13-21 29-38 34-38 6 0 10-5 10-11 0-19-71-2-99 24-44 40-101 62-131 49-14-6-54-23-90-37-82-35-163-88-185-122-17-26-18-26-32-7-8 10-27 46-43 79-24 55-96 135-119 135-5 0-118 81-252 180-133 99-246 180-250 180-35 0 23-52 235-209 134-100 247-181 252-181 24 0 76-58 102-113 17-35 53-93 81-129 36-48 51-76 53-104 3-36 5-39 33-38 24 1 36-6 59-37 35-46 80-68 106-51 14 9 19 8 24-3 9-25 41-17 108 24 35 22 90 51 123 66 68 29 116 83 167 192 56 116 140 199 400 395 131 98 236 183 232 189-3 6-12 8-20 5-13-5-389-284-446-331-64-53-152-164-183-230-51-107-104-168-167-192-29-11-82-39-118-61-43-28-68-38-75-31-15 15 59 76 115 95 50 16 80 47 80 83 0 11-8 22-17 24-34 9-173 6-178-4-11-16-25-10-25 11 0 32-19 24-76-35-43-43-54-50-54-34 0 11 29 51 65 89 63 67 80 100 52 100-8 0-20-12-27-26-8-14-35-43-61-65-35-29-49-50-58-83-15-62-36-73-27-15 10 66 48 121 121 178 36 28 65 55 65 60 0 4 11 13 25 19 22 10 32 9 63-8 20-11 49-30 65-42 20-16 41-22 80-23 49 0 52 2 55 26 2 19-6 36-29 58l-31 32 43 28c104 66 482 501 464 532-11 17-21 9-55-38-133-190-412-483-460-483-11 0-47 18-80 39-63 41-130 61-204 61-69 0-99 16-167 93-130 146-311 337-320 337-5 0-9-6-9-12zm405-714c-30-30-60-52-66-49-13 9 4 30 61 71 66 49 67 41 5-22zm253-116c17-17 15-48-4-55-9-3-24 3-36 15-12 12-18 27-15 36 7 19 38 21 55 4zm85 5c8-7-21-43-35-43-13 0-9 38 5 43 18 8 23 8 30 0zm-173-27c0-7 9-25 21-40 18-24 19-27 4-32-11-5-27 4-48 24-26 26-28 33-17 46 15 20 40 21 40 2zm-84-68c-16-22-16-22-16 8 0 37 11 50 22 29 6-10 3-23-6-37zm74-40c0-5-11-8-25-8-23 0-34 18-19 33 7 7 44-14 44-25zM6990 4556c0-8 65-84 143-169 79-85 163-177 187-205 48-58 72-68 179-76 118-8 201-55 284-160 28-35 28-36 7-36-26 0-90 29-90 41 0 9-86 49-106 49-8 0-35-11-61-25-27-13-75-36-107-51-33-15-79-47-102-70-49-49-46-50-97 51-38 75-61 101-120 134-20 11-137 96-259 187-121 92-226 167-232 168-41 4 9-41 222-199 133-99 259-191 282-204 30-19 49-43 81-104 22-43 61-103 86-134 36-44 44-61 40-82-8-39 5-54 39-47 25 5 31 2 46-24 22-38 76-72 105-65 13 3 32 0 43-7 17-11 28-8 77 20 32 18 90 49 130 68 83 39 135 97 189 209 53 112 143 199 398 391 202 150 250 194 216 194-6 0-118-80-248-179-258-194-348-284-397-396-42-95-96-157-158-182-30-12-82-40-117-62-60-37-80-43-80-21 0 20 67 69 115 85 41 13 56 23 71 50 15 28 16 37 6 47-15 15-179 22-187 8-12-19-33-11-28 10 9 33-20 23-64-22-22-24-45-52-51-63-10-18-11-17-12 13 0 27 9 41 51 80 57 52 85 97 68 107-6 4-11 5-13 4-1-2-32-36-69-76-43-46-67-81-67-96 0-13-7-32-16-43-14-18-15-16-11 23 8 70 44 128 108 173 32 23 64 49 71 59 7 10 23 23 35 30 24 12 59-2 132-54 21-16 48-25 70-25 66 0 80 39 31 83-35 32-37 43-9 52 37 12 293 278 387 402 83 110 107 153 84 153-5 0-45-48-89-107-45-60-105-135-134-169-88-100-258-254-280-254-10 0-48 18-82 39-67 43-125 60-198 61-25 0-59 5-75 10-18 7-100 87-218 215-103 113-192 205-197 205-5 0-9-6-9-14zm405-712c-30-30-60-52-66-49-13 9 4 30 61 71 66 49 67 41 5-22zm250-116c18-55-7-76-45-38-17 17-19 24-9 36 14 17 48 18 54 2zm72-25c-12-12-20-14-28-6-7 7-5 15 7 27 12 12 20 14 27 7 8-8 6-16-6-28zm-160 0c3-10 15-28 26-40 18-20 18-23 4-29-21-8-77 32-77 55 0 34 36 44 47 14zm-74-36c5-14-17-50-25-42-8 8 3 55 12 55 4 0 10-6 13-13zm52-57c18-19 17-20-7-20-30 0-38 7-31 26 7 19 17 18 38-6zM1464 4419c-3-6-1-16 5-22 17-17 13-58-8-94-29-46-39-94-28-126 14-42 33-28 29 21-3 30 3 52 18 77 12 19 23 35 24 35 2 0 2-20 2-44-1-33 5-50 22-68 12-14 22-32 22-41 0-21 19-22 26-2 4 9-5 33-19 53-20 32-24 47-20 84 4 31 0 57-12 82-19 40-49 63-61 45zM3225 4400c-148-32-271-62-364-91-88-27-91-26-91 21 0 40-13 53-24 24-3-9-6-31-6-49 0-31-4-35-47-51-173-63-426-175-437-193-18-28 30-17 134 32 121 57 338 143 344 136 4-5-15-283-52-767-25-321-25-390-3-353 8 12 26 236 66 799 13 184 25 335 27 337 17 15 330 99 488 129 78 16 115 27 115 36 0 21-11 20-150-10zM10860 4399c-125-25-370-88-425-109-22-9-24-7-27 31-4 55-22 54-26-2l-3-46-137-53c-161-62-352-150-352-161 0-23 29-17 107 21 79 38 297 128 351 145 20 6 22 3 22-37 0-63-62-912-76-1035-4-43-3-53 9-53 10 0 17 15 21 48 7 58 52 647 69 906l12 189 70 24c86 29 309 86 430 109 93 17 116 27 100 42-6 5-70-3-145-19zM1709 4328c-1-2-2-20-3-41-2-31-11-46-45-77-33-30-42-45-39-65 4-30 22-37 26-9 2 10 21 37 42 59 41 42 56 80 45 114-5 17-22 29-26 19zM1270 4296c0-8 9-18 20-21 28-9 47-41 55-94l7-44-36 6c-22 3-48 19-70 41-35 34-83 52-123 44-19-3-26-33-8-33 35-2 55-21 78-74 32-75 92-123 112-91 3 5-8 16-25 25-29 15-50 46-65 95l-7 25 30-29c33-30 133-56 140-36 2 6 10 10 18 10 20 0 17 17-6 40-11 11-20 32-20 48 0 28-22 67-50 89-21 17-50 16-50-1zM1894 4193c-18-24-29-28-97-33-81-7-117-26-117-62 0-21 18-24 26-4 8 21 57 38 100 34l39-3-37-17c-21-9-38-21-38-26 0-5-12-26-26-47-16-25-22-41-15-48 5-5 7-16 4-23-6-16 22-20 32-4 3 5 32 7 68 3 54-4 66-2 90 17 15 12 27 28 27 36 0 19-6 18-40-7-24-18-36-21-84-15l-55 7 12 32c9 21 27 38 53 51 53 25 71 42 85 83 15 46-1 61-27 26zM1419 4107c-61-33-101-92-107-161-10-129 75-226 198-226 50 0 120 22 120 37 0 5-29 8-64 8-72 0-104 17-143 75-32 46-32 124 0 171 33 50 100 82 160 75 56-6 62 9 12 30-52 21-125 18-176-9zM1088 4009c-10-5-18-17-18-26 0-11 5-13 18-8 49 22 96 12 151-32 3-2-6-14-19-28-17-18-34-25-62-25-60 0-128-44-128-82 0-22 13-23 30-3 7 8 23 15 35 15 12 0 42-7 65-15 59-21 103-19 125 5 24 26 13 36-24 20-24-9-38-9-68 0-55 18-63 30-19 30 29 0 44 7 64 30 15 17 32 30 39 30 7 0 13 11 13 25 0 37-3 40-27 37-12-1-37 7-55 18-35 21-92 26-120 9z" class="color000 svgShape"/><path d="M2842 3975c-6-13-9-31-6-38 2-7-5-105-16-217-12-120-16-208-11-213 11-11 9-13 68 105l47 93 14-37c19-49 46-57 80-25 24 23 29 24 46 11 26-18 80-18 96 1 19 23 3 35-31 22-27-11-33-10-49 11-15 18-17 33-13 77 5 45 3 55-10 55-11 0-17-15-22-52-16-114-75-152-75-48 0 15-6 33-14 39-12 10-21 1-53-53-39-67-57-83-49-43 4 17 20 187 30 311 2 29-19 30-32 1zM10480 3974c-6-14-8-29-6-33 3-4-4-92-14-196-29-287-26-298 39-162 22 45 47 91 55 102 15 20 15 20 16 0 0-29 28-65 50-65 10 0 28 12 39 26 19 24 21 25 43 10 29-20 82-21 98-1 18 21-3 46-22 27-17-17-42-15-62 7-13 14-15 29-10 75 6 46 4 56-8 56-16 0-28-28-28-67 0-12-8-38-17-58-23-48-47-43-51 12-2 23-9 47-17 53-14 12-18 7-79-93-10-16-19-27-22-25-2 3 3 69 11 149 17 172 18 209 5 209-6 0-15-12-20-26zM1751 3906c-13-16 2-32 19-21 6 4 23-1 37-10 27-18 74-68 68-73-1-2-19 5-39 15-31 14-42 15-70 5-18-7-41-10-50-6-11 4-16 1-16-10 0-9-4-16-10-16-18 0-10-29 10-35 11-4 26-18 34-33 23-43 62-74 97-75 45-3 47 18 2 29-27 6-45 20-65 49-15 22-27 43-28 47 0 3 14 11 31 17 25 9 38 7 69-9 22-11 54-20 72-20 37 0 82 20 79 35-1 9-8 11-53 14-9 1-34 19-55 42-59 63-108 84-132 55zM1311 3773c-5-10-28-25-52-33-45-16-77-51-81-89-4-36 15-35 32 2 10 21 31 40 60 54 58 28 56 29 64-8 5-25 0-40-24-72-23-32-30-51-30-86 0-26 4-52 9-60 11-17 34-4 27 15-10 25 5 44 66 85 55 37 78 69 78 105 0 8-7 14-15 14-8 0-15-8-15-18 0-20-41-62-77-81-27-14-30-5-7 20 22 24 28 149 8 149-8 0-14 5-14 10 0 16-18 11-29-7zM1640 3725c0-9 7-26 16-40 11-17 14-36 9-69-8-49-25-63-25-21 0 36-81 115-115 111-33-4-40-12-25-30 9-12 8-24-6-61-14-39-15-52-5-86 11-37 34-59 47-46 3 3-2 20-12 38-16 31-16 36 1 85l17 52 29-17c21-12 33-30 44-68 16-55 61-103 96-103 25 0 24 12-1 35-18 16-20 29-18 106 3 74 0 90-16 108-23 25-36 27-36 6zM4480 3464c-11-12-10-18 3-32 16-15 18-15 34 0 13 14 14 20 3 32-7 9-16 16-20 16-4 0-13-7-20-16zM7450 3464c-11-12-10-18 3-32 16-15 18-15 34 0 13 14 14 20 3 32-7 9-16 16-20 16-4 0-13-7-20-16zM4620 3455c0-9-13-24-30-33-16-9-30-19-30-22 0-3 14-13 30-22 17-9 30-24 30-33 0-22 8-19 37 15 13 17 31 30 39 30 8 0 14 5 14 10 0 6-6 10-14 10-8 0-26 14-39 30-29 34-37 37-37 15zM7582 3446c-6-13-20-27-31-31-28-8-26-19 3-33 13-6 27-20 31-31 3-12 10-21 15-21 5 0 12 9 15 21 4 11 18 25 31 31 30 14 30 22 0 36-13 6-27 20-31 31-8 28-19 26-33-3zM4533 3334c-3-8 1-22 9-30 13-13 16-13 27 0 7 9 11 23 7 31-7 20-35 19-43-1zM7500 3335c-10-12-9-18 5-31 15-15 18-15 32-1 13 13 14 19 3 31-16 20-24 20-40 1zM4647 3253c-12-11-8-23 8-23 8 0 15 7 15 15 0 16-12 20-23 8zM7610 3245c0-8 7-15 15-15 8 0 15 7 15 15 0 8-7 15-15 15-8 0-15-7-15-15zM4478 3219c-17-18-17-20 2-39l20-20 21 21c20 20 20 22 3 40-21 23-24 23-46-2zM6765 3226c-148-36-278-162-325-315-19-59-20-94-20-572l0-509 465 0 465 0 0 478c0 285-4 503-11 542-43 266-309 441-574 376zm-83-252c-28-19-52-65-52-99 0-34 24-80 52-99 20-14 20-16 4-16-10 0-33 15-52 34-29 29-34 41-34 81 0 40 5 52 34 81 19 19 42 34 52 34 16 0 16-2-4-16zm638-584l0-60-135 0-135 0 0 60 0 60 135 0 135 0 0-60zm0-160l0-60-190 0-190 0 0 60 0 60 190 0 190 0 0-60zm-5-155l0-60-225-3c-124-2-240 0-257 3-33 6-33 6-33 66l0 59 258-2 257-3 0-60zm5-155l0-60-330 0-330 0 0 60 0 60 330 0 330 0 0-60zM7446 3221c-17-18-17-20 3-40l21-21 20 20 20 20-20 20c-24 24-23 24-44 1zM4610 3095c0-8 5-15 10-15 6 0 10 7 10 15 0 8-4 15-10 15-5 0-10-7-10-15zM7577 3103c-12-11-8-23 8-23 8 0 15 7 15 15 0 16-12 20-23 8zM1757 3013c-4-3-7-55-7-115 0-89 3-108 15-108 12 0 15 19 15 115 0 105-5 127-23 108zM1606 2992c-8-14 49-215 62-220 20-6 17 16-29 191-9 35-22 47-33 29zM1905 2988c-24-74-52-205-44-212 5-5 11-7 14-4 8 8 55 186 55 209 0 21-18 26-25 7zM1460 2945c0-16 102-205 110-205 17 0 11 20-34 116-28 60-50 94-60 94-9 0-16-2-16-5zM2005 2860c-45-89-54-120-35-120 11 0 100 172 100 195 0 35-23 9-65-75zM5665 2920c-4-7-2-17 4-23 18-18 13-54-14-107-27-53-32-109-13-128 21-21 28-13 22 26-5 30-1 49 17 83l23 44 6-52c3-28 13-60 23-70 9-11 17-27 17-37 0-22 24-16 28 7 2 9-6 30-17 46-16 22-21 44-21 89 0 45-5 67-22 92-26 37-43 47-53 30zM11070 2918c-179-38-290-64-390-93-63-18-122-35-130-37-11-2-15 6-15 32 0 51-18 48-30-5l-10-46-100-38c-208-79-375-158-375-177 0-21 11-18 122 35 106 50 329 141 348 141 5 0 10-3 10-7 0-17-50-696-66-899-9-118-14-217-10-221 3-4 10-2 15 3 8 8 38 358 77 914 9 124 16 226 17 227 10 9 347 99 458 121 99 20 144 33 144 42 0 18-12 19-65 8zM4300 2911c0-5 5-21 11-34 9-21 6-35-20-88-33-68-37-89-21-120 17-31 32-23 25 15-5 25-1 45 16 77l23 44 6-47c3-26 13-55 22-65 9-10 18-27 19-37 2-11 9-19 14-18 19 2 16 41-6 71-18 24-20 37-15 73 5 34 2 53-16 88-21 41-58 67-58 41zM8125 2911c-3-5-1-12 5-16 18-11 11-64-15-115-33-66-33-130 2-130 10 0 12 8 8 34-5 25-1 45 17 77l23 44 3-45c2-25 10-52 17-60 7-8 18-28 24-43 6-16 15-25 21-22 16 10 12 40-10 68-15 19-20 40-20 90 0 56-4 70-26 96-27 32-39 38-49 22zM1350 2875c0-21 112-184 128-185 22 0 13 19-48 110-58 87-80 107-80 75zM2148 2858c-51-67-98-143-98-156 0-29 27-2 84 81 43 62 57 90 49 98-8 8-18 1-35-23zM9210 2859c-165-32-305-181-329-349-46-337 286-589 591-448 75 34 90 55 31 42-21-5-72-9-113-9-65 0-85 5-142 33-74 36-133 96-170 170-19 40-23 63-23 147 0 84 4 107 23 147 37 74 96 134 168 169 56 28 77 33 142 33 43 1 94-3 115-8 56-13 46 6-20 37-92 43-178 55-273 36zM2980 2830c-18-5-39-17-46-27-42-63-92-111-121-117-18-4-57-18-85-31-29-14-63-25-75-25-19 0-73-51-73-70 0-4 7-24 15-44 15-35 15-36-15-51-42-22-49-59-17-93 38-42 43-104 12-170-14-30-25-65-25-78 0-32 31-94 47-94 7 0 27-25 44-55 32-58 69-85 114-85 14 0 25-4 25-9 0-4 18-29 41-55l41-46 74 0c67 0 76-2 107-30 30-26 43-30 90-30 49 0 61 4 106 40 39 31 59 40 89 40 30 0 43 6 59 28 12 16 39 37 60 47 21 9 52 31 69 49 18 17 43 39 57 49 19 12 28 29 33 65 4 26 15 58 25 71 23 29 24 70 2 115-15 31-15 43-3 105 13 70 13 71-15 113-15 24-38 54-51 68-61 64-75 89-65 109 30 55-1 107-90 151-67 34-111 38-154 12-66-40-114-32-169 27-31 32-46 35-106 21zm106-60l43-39-30-18c-16-9-31-24-34-33-3-8-14-26-25-38l-20-24-31 26c-17 14-43 29-57 32-56 12-57 13-26 42 16 15 36 37 44 50 8 13 31 27 50 32 19 4 37 8 39 9 2 1 23-17 47-39zm316-32c73-39 85-58 68-109-11-34-11-40 9-65 12-15 20-29 18-31-2-2-21 0-43 5-35 7-41 13-57 56-21 59-71 132-99 147-17 9-18 13-7 20 24 15 49 10 111-23zm-119-28c37-30 66-73 88-132 10-29 17-53 16-54-1-2-42-8-91-14-84-10-90-10-111 10-11 11-27 20-33 20-31 0-93 27-98 42-9 29 42 90 99 120 63 33 96 35 130 8zm-338-77c17-7 38-25 49-39 18-26 18-26-1-20-30 10-72-10-83-39-5-14-22-30-37-36-16-6-38-19-49-30-15-15-29-18-48-13-34 8-35 47-1 115 41 80 53 90 100 83 22-4 54-13 70-21zm-202-55c-21-39-35-54-53-56-14-2-30-8-37-14-19-15-46 44-30 65 10 14 107 52 140 56 5 1-4-23-20-51zm382-113c21-18 8-15-37 7-15 7-30 19-33 26-5 14 37-5 70-33zm401 30c12-3 35-27 52-55 33-52 40-84 22-95-5-3-10 0-10 9 0 8-9 34-19 59-18 42-22 45-68 52-53 8-83 21-83 35 0 9 44 7 106-5zm-518-8c6-6 13-24 17-39 7-26 6-27-27-22-24 4-38 1-47-10-14-17-51-22-51-7 0 5 7 14 16 22 8 7 22 25 30 41 15 29 44 37 62 15zm-288-15c0-12-11-21-32-27-38-11-49-46-24-74 13-15 13-20-6-49-23-37-38-34-38 9 0 19-10 39-26 56-29 29-27 33 43 74 56 33 83 36 83 11zm665 0c-3-3-11 0-18 7-9 10-8 11 6 5 10-3 15-9 12-12zm-489-18c-22-16-46-19-46-5 0 10 52 31 60 24 3-3-4-11-14-19zm494-20c29-10 62-14 93-10 61 7 70-11 31-60-16-19-38-52-49-73-23-43-85-101-108-101-9 0-28-5-42-12-32-14-43-4-22 20 19 21 22 48 7 57-7 4-3 19 11 41l21 35-21 50c-12 27-19 54-16 59 9 14 43 12 95-6zm-578-21c20-3 45-14 54-24 23-25 10-37-15-15-28 25-44 11-38-31 8-46 22-61 63-69 38-7 43-18 16-33-11-6-36-5-69 1-57 11-95 48-109 104-4 16-13 37-21 46-14 15-12 18 18 27 19 5 41 7 49 4 8-3 32-7 52-10zm418 7c0-5 8-10 18-10 11 0 24-16 35-42l17-42-25-25c-29-30-39-24-25 14 14 37-10 65-57 65-37 0-40 5-16 32 17 19 53 25 53 8zm-100-70c5 0 10-4 10-10 0-23-28-7-43 25-23 48-21 57 3 18 11-18 24-33 30-33zm-71 14c12-15 21-36 21-47 0-20 0-20-22 1-13 11-39 22-58 24l-35 3 23 23c29 29 46 28 71-4zm-123-39c-3-8-10-15-15-15-5 0-4 11 2 25 12 25 23 16 13-10zm620-8c-3-18-24-61-46-94-36-56-44-62-87-71-28-6-54-7-63-2-12 8-11 9 7 10 30 0 102 66 120 110 15 36 63 93 71 85 2-2 2-19-2-38zm-370-33c-3-8-10-14-16-14-14 0-13 33 3 49 10 10 13 9 15-4 2-9 1-23-2-31zm-309 30c-3-3-12-4-19-1-8 3-5 6 6 6 11 1 17-2 13-5zm157-12c6-10-19-43-27-35-13 12-7 43 7 43 8 0 17-3 20-8zm-313-37c22-36 51-49 137-62 23-3 42-8 42-10 0-2-10-17-21-33-21-28-23-28-91-23-86 7-128 37-128 91 0 37 15 72 31 72 5 0 19-16 30-35zm246 13c-3-8-6-5-6 6-1 11 2 17 5 13 3-3 4-12 1-19zm640-147c-9-14-23-40-31-57-13-27-89-75-100-63-2 2-6 30-9 61-5 49-3 58 13 63 10 3 37 37 61 76l42 70 20-62c19-58 20-63 4-88zm-527 125c0-3-4-8-10-11-5-3-10-1-10 4 0 6 5 11 10 11 6 0 10-2 10-4zm69-58c1-15-1-15-31-1l-31 16 23 19c23 19 24 19 31 1 4-10 8-26 8-35zm111 42c0-5-4-10-9-10-6 0-13 5-16 10-3 6 1 10 9 10 9 0 16-4 16-10zm-628-47c2-10-2-29-9-43-6-14-14-33-17-43-7-23-26-13-26 13 0 23 31 90 41 90 4 0 9-8 11-17zm352 2c-4-8-11-15-16-15-6 0-5 6 2 15 7 8 14 15 16 15 2 0 1-7-2-15zm76-22c0-21 4-45 9-53 14-21 1-34-14-13-7 10-14 23-15 28-1 6-6 18-12 28-6 13-6 23 3 33 19 24 29 16 29-23zm174-29c14-47 10-84-9-84-41 0-143 79-130 100 5 8 10 9 18 1 20-20 56-13 63 13 9 38 44 19 58-30zm-549-14c12-13 33-20 69-22 45-3 51-6 48-23-12-79-13-115-3-133 8-16 7-21-5-26-53-20-95 6-138 87-28 51-29 57-18 96 14 46 21 49 47 21zm295-8c16 2 25-3 28-14 2-13-3-18-20-18-30 1-62 25-53 40 6 9 9 9 14 1 4-6 18-10 31-9zm310 1c0-10 7-38 15-61 13-37 14-52 3-98-12-50-28-68-43-44-3 6-12 10-20 10-14 0-125 109-125 123 0 11 7 9 52-13 23-11 48-20 55-20 20 0 45 46 46 85 1 35 17 51 17 18zm150-72c0-56-14-68-37-34-11 15-28 42-37 60l-16 32 33 3c40 4 57-14 57-61zm-536 46c8-7 11-26 8-45-4-27 2-38 37-73 29-29 47-40 61-36 40 10 29-11-12-25-56-18-78-13-78 18 0 14-6 37-14 52-15 30-31 122-21 122 4 0 12-6 19-13zm-28-112c8-23 14-48 14-58 0-29-27-19-50 19-18 28-21 44-16 81 8 63 19 75 29 33 5-19 15-53 23-75zm120 62c5-8 12-67 8-67-16 0-64 47-64 63 0 16 5 18 27 12 16-4 28-7 29-8zm94-6c5-11 7-33 4-49-9-42 43-138 63-118 4 3-4 29-17 56-13 27-21 52-19 55 3 2 27-17 53-44 37-37 49-58 53-90l6-41-37 0c-47 0-116 64-116 109 0 15-11 45-25 65-35 51-33 76 6 76 10 0 23-9 29-19zm310-94c0-19-2-19-14-7-8 8-18 29-21 45l-6 30 20-24c12-13 21-33 21-44zm160 49c0-2-7-6-15-10-8-3-15-1-15 4 0 6 7 10 15 10 8 0 15-2 15-4zm-60-32c0-16-23-44-35-44-18 0-20 36-2 43 17 8 37 8 37 1zm-136-49c32-49-1-91-64-80-29 5-40 11-40 25 0 13 6 17 19 13 22-6 51 21 51 48 0 26 15 24 34-6zm-520-24c11-17 123-21 161-5 21 8 38 14 39 12 37-58 36-55 17-72-14-12-37-16-104-14l-87 2-30 37c-16 21-30 40-30 43 0 9 28 7 34-3zm272-82c3-6 22-17 41-25 18-8 31-19 28-24-9-15-88-12-110 3-17 14-17 15 1 35 22 24 30 26 40 11zM5916 2823c-3-3-6-19-6-35 0-21-13-42-45-76-32-33-45-54-43-70 4-28 22-30 26-2 2 11 17 30 34 43 37 27 58 66 58 106 0 30-11 46-24 34zM4540 2784c0-28-8-44-40-76-43-45-57-75-42-90 13-13 33-1 26 16-3 8 8 24 26 38 40 29 60 67 60 113 0 24-4 35-15 35-11 0-15-11-15-36zM8370 2785c0-30-8-44-45-81-46-44-62-94-30-94 8 0 15 7 15 16 0 10 21 39 46 66 39 42 45 53 42 85-4 50-28 57-28 8zM4106 2803c-4-4 9-21 29-38 27-23 37-41 44-77l8-48-38 0c-30 0-42 5-55 26-23 34-65 54-114 54-29 0-40-4-40-15 0-8 8-15 18-15 26 0 56-36 82-98 23-54 43-72 79-72 29 0 26 18-4 30-23 9-65 74-65 101 0 7 13 1 28-14 16-15 39-27 55-27 14 0 37-5 51-11 20-10 28-8 47 10l23 21-21 15c-13 9-22 30-26 57-4 32-15 51-41 75-37 34-47 38-60 26zM5470 2804c0-4 16-21 35-38 28-25 37-41 42-78 6-47 5-48-21-48-15 0-41 13-63 34-51 44-75 56-118 56-29 0-36-4-33-17 2-9 14-20 28-23 19-4 33-22 57-72 33-68 71-105 98-94 22 8 18 23-9 30-26 6-47 34-65 86l-11 34 29-28c40-38 121-53 158-29 25 17 25 17 4 32-12 10-23 33-27 59-8 49-51 102-83 102-12 0-21-3-21-6zM7934 2798c-7-10 2-20 41-43 9-6 23-33 30-60l12-50-34-3c-29-3-42 4-78 37-38 35-51 41-90 41-33 0-45-4-45-15 0-8 8-15 18-15 25 0 46-25 71-82 25-58 54-88 86-88 33 0 32 16-2 32-25 12-78 96-67 107 2 3 17-8 32-22 17-16 39-27 56-27 15 0 36-5 47-10 14-8 25-6 44 6 26 17 26 17 6 38-11 12-23 39-27 61-4 25-19 52-40 73-34 34-48 39-60 20zM1235 2789c-4-6 26-45 66-87 73-76 99-95 99-72 0 13-141 170-152 170-4 0-10-5-13-11zM2211 2723c-65-72-84-103-63-103 15 0 152 148 152 164 0 29-18 17-89-61z" class="color000 svgShape"/><path d="M9551 2764c-11-14-11-18 3-32 15-15 17-15 33 0 13 14 14 20 3 32-15 20-21 19-39 0zM1605 2735c-78-27-180-93-240-155l-40-41 66-64c118-112 290-177 425-161 114 13 230 72 343 173l54 48-67 63c-123 114-237 162-385 161-64 0-104-6-156-24zm253-26c29-15 54-37 74-68 26-41 29-53 26-113-3-57-8-73-34-104-41-52-97-78-159-78-60 1-101 21-143 68-60 69-65 162-11 235 56 79 157 103 247 60zm-277-46c-48-67-50-162-5-240 14-24 22-43 18-43-17 0-124 66-172 107-35 30-50 49-45 58 21 36 208 163 221 150 2-2-5-16-17-32zm418 4c54-31 161-115 161-126 0-17-102-99-162-131-32-17-58-29-58-27 0 3 11 25 25 48 34 60 35 147 1 212-13 26-20 47-16 47 5 0 26-10 49-23z" class="color000 svgShape"/><path d="M1725 2566c-33-50 20-104 70-72 27 18 34 63 13 84-21 21-66 14-83-12zM6089 2690c-23-26-34-30-78-30-64 0-117-21-126-50-10-32 2-36 30-10 19 18 39 24 82 27 53 3 56 2 31-10-35-16-68-47-68-63 0-7-10-22-22-34-16-15-19-23-11-31 6-6 9-18 6-25-6-16 22-20 32-4 3 5 32 7 68 3 58-5 65-3 95 22 42 35 28 57-16 25-25-19-37-21-85-15l-55 7 13 31c8 21 27 38 56 51 47 23 89 75 89 112 0 31-9 30-41-6zM4724 2684c-16-22-29-26-98-33-65-6-82-11-97-30-35-43-16-56 28-21 18 14 40 20 77 20l51-1-32-14c-18-8-41-29-52-47-11-18-25-38-30-45-6-6-8-26-5-42 7-31 14-37 28-23 4 4 39 7 77 7 61 0 71 3 96 27 36 36 24 45-29 20-42-19-112-21-123-2-13 20 17 61 55 76 50 20 90 66 90 105 0 36-10 37-36 3zM8561 2691c-14-25-62-41-123-41-39 0-54-5-73-25-14-13-25-29-25-35 0-17 26-11 45 10 14 16 31 20 74 20l56 0-42-20c-28-12-44-27-49-44-3-13-14-32-25-42-14-13-16-20-8-30 6-7 8-18 5-23-9-13 11-24 27-14 6 4 42 8 79 8 60 0 70 3 95 27 36 36 24 45-29 20-50-23-128-20-128 5 0 29 23 55 66 73 46 20 84 68 84 108 0 27-16 29-29 3zM9641 2664c-11-14-11-18 3-32 15-15 17-15 32 0 15 15 15 18 1 32-19 19-19 19-36 0zM5619 2607c-29-16-54-40-74-72-26-41-30-58-30-116 0-59 4-73 30-110 56-79 163-111 250-75 49 21 43 34-13 28-180-17-251 220-92 306 36 19 55 23 93 18 56-6 62 9 12 30-52 21-125 18-176-9zM4243 2595c-114-70-133-223-39-321 89-92 236-81 311 25 27 39 30 50 30 121 0 72-2 81-31 116-53 66-77 78-157 82-63 3-77 0-114-23zM8075 2597c-113-64-138-216-52-314 81-92 213-95 300-7 74 74 76 205 4 282-60 64-176 82-252 39zM9695 2528c-6-13-20-27-32-33-30-13-29-17 7-43 17-13 30-29 30-37 0-8 5-15 10-15 6 0 10 7 10 15 0 8 14 24 30 37 33 24 38 38 15 38-9 0-24 13-33 30-20 36-24 37-37 8z" class="color000 svgShape"/><path d="M3933 2505c-50-22-42-37 16-29 41 5 55 2 91-18l41-25-31-27c-22-18-43-26-68-26-42 0-95-29-112-61-15-27 1-47 20-24 16 19 58 19 127-1 58-17 105-8 117 22 8 21-9 25-39 10-23-12-34-12-72-1-59 18-65 25-19 25 29 0 45 7 64 28 15 16 34 31 43 34 10 4 16 19 17 38 1 27-2 31-19 27-11-3-44 5-72 19-60 28-62 28-104 9zM5285 2507c-24-18-11-41 15-27 34 18 86 5 139-37 3-2-6-14-19-28-17-18-34-25-59-25-47 0-102-28-121-62-19-35-9-44 24-23 27 18 33 17 133-6 57-14 103-2 103 26 0 18-14 19-39 3-14-9-29-8-65 2-58 16-68 30-21 30 25 0 43 8 61 25 13 13 32 29 42 34 11 6 18 20 17 38 0 24-4 28-27 25-15-1-42 7-60 18-38 23-96 26-123 7zM7763 2509c-18-5-33-16-33-24 0-11 11-13 49-8 40 5 56 1 90-19l42-25-31-27c-24-19-43-26-76-26-36 0-51-6-81-33-26-25-34-39-29-52 6-16 8-17 24-1 24 20 61 20 128-1 58-18 98-10 111 22 8 24-1 27-32 11-23-12-34-12-72-1-57 17-65 25-25 25 20 0 43 10 64 29 18 15 40 30 48 33 8 2 15 18 16 37 2 29-1 32-22 27-14-4-40 3-70 19-51 27-54 28-101 14zM10606 2478c-4-23-41-431-41-457 0-40 25-11 69 79 49 100 66 120 66 77 0-25 28-57 49-57 6 0 23 12 37 27 23 24 25 25 42 10 10-10 32-17 49-17 35 0 62 25 46 41-8 8-13 7-17 0-10-16-52-13-66 4-14 17-16 57-5 107 6 25 4 29-11 26-12-2-21-19-29-58-13-66-30-100-50-100-10 0-15 10-15 29 0 37-16 81-29 81-6 0-27-30-48-67-27-48-39-63-41-49-4 17 10 178 24 299 5 38 3 47-10 47-9 0-18-10-20-22zM5957 2413c-14-13-7-35 9-29 22 8 69-18 95-55l22-31-33 17c-24 12-42 15-69 9-20-5-45-7-56-6-24 2-54-50-33-57 12-4 27-20 76-79 31-38 102-58 102-28 0 9-8 16-17 16-32 1-64 25-89 67l-24 41 31 11c25 9 38 7 69-9 44-22 97-26 135-8 37 17 32 38-10 36-29-1-44 7-94 55-56 53-94 70-114 50zM4587 2403c-14-14-6-23 21-23 19 0 40-12 67-40 39-40 40-49 4-29-29 15-149 1-149-17 0-8-4-14-10-14-5 0-10-7-10-15 0-8 9-15 20-15 13 0 27-12 38-32 28-51 61-78 98-78 24 0 34 5 34 15 0 8-9 15-21 15-32 0-55 16-78 55-28 48-27 53 12 60 22 4 44 0 72-15 47-24 64-25 111-5 43 18 41 41-3 37-25-3-39 6-85 52-42 43-63 56-85 56-16 0-33-3-36-7zM8410 2395c0-9 9-15 25-15 27 0 115-72 96-78-7-2-18 1-26 8-20 17-145 3-145-16 0-8-4-14-10-14-5 0-10-7-10-15 0-8 9-15 20-15 13 0 27-14 40-39 25-49 55-71 98-71 43 0 38 19-8 34-32 10-94 82-84 97 12 20 60 18 111-3 50-21 57-21 96-8 52 18 58 47 10 42-28-3-40 4-88 52-46 47-61 56-90 56-24 0-35-5-35-15zM9662 2308c-7-7-12-17-12-24 0-19 32-26 48-10 13 13 13 16-1 30-19 19-20 19-35 4zM4147 2266c-10-14-22-26-28-26-45 0-109-61-109-105 0-26 25-16 37 15 8 21 25 36 55 50 24 11 49 20 56 20 21 0 14-64-12-99-30-40-40-80-31-121 8-35 35-41 35-7 0 30 14 47 72 86 53 35 68 57 68 96 0 36-20 27-34-14-8-23-25-41-56-59l-45-27 22 35c22 37 37 150 20 150-5 0-15 7-22 16-10 14-13 13-28-10zM5516 2275c-3-8-29-25-58-38-51-23-74-49-80-91-5-32 17-28 33 6 9 22 29 40 59 55 58 28 57 28 65-7 5-24 0-40-24-77-30-45-37-83-25-130 4-13 10-23 15-23 10 0 14 8 23 52 4 19 21 36 51 54 54 31 85 68 85 100 0 34-26 30-33-5-4-21-19-37-49-55-48-28-61-26-32 5 26 29 29 138 5 156-21 16-28 16-35-2zM7975 2268c-6-12-27-27-50-35-48-16-85-55-85-89 0-30 18-31 29-1 12 29 38 52 80 66 19 6 35 11 37 11 1 0 5-13 9-29 5-22-1-40-24-77-30-46-39-93-25-128 11-28 33-18 36 16 2 27 12 39 53 65 64 42 85 68 85 105 0 35-22 34-30-3-6-22-88-95-97-85-3 2 5 18 18 35 17 24 21 37 15 70-3 24-2 42 4 46 7 4 2 16-12 31-28 29-31 29-43 2zM1741 2266c-19-22-4-56 23-56 32 0 53 26 39 48-14 23-47 27-62 8zM5847 2233c-4-6 0-24 9-40 13-22 15-40 10-76-7-46-26-57-26-16 0 29-80 104-112 105-25 2-27-1-27-40 0-22-3-63-7-90-7-51 8-96 33-96 16 0 17 22 2 37-14 14-13 61 3 105l13 37 32-20c24-15 33-30 38-62 9-48 60-107 94-107 27 0 27 21 0 38-20 13-21 19-14 96 6 78 5 85-18 111-14 17-26 24-30 18zM4470 2216c0-7 7-19 15-26 16-13 20-67 8-110-7-23-8-22-18 15-8 27-22 47-43 60-17 11-31 25-32 32 0 6-15 11-34 10-32-1-33-2-34-41-1-23-4-64-7-91-5-41-3-55 13-74 25-32 50-19 28 15-9 13-16 33-16 45 0 18 18 83 26 97 2 2 17-4 34-14 23-14 32-28 37-59 7-43 67-115 97-115 22 0 20 23-4 45-18 16-20 26-14 96 6 64 4 83-10 104-18 27-46 34-46 11zM8300 2218c0-7 7-22 15-32 16-21 18-64 6-106-7-23-9-22-20 16-7 26-21 48-39 59-15 10-30 24-35 31-4 7-20 12-36 12-26-1-29-4-29-37 0-20-3-61-7-91-6-47-4-59 13-80 24-30 40-20 24 15-19 41-12 104 14 144 8 11 63-43 68-66 13-57 29-83 61-103 18-11 37-20 44-20 18 0 13 24-10 44-19 16-21 24-14 91 4 51 3 81-6 97-18 35-49 51-49 26zM9590 2184c-11-12-10-18 3-31 14-14 17-14 32 1 15 14 15 18 1 31-18 19-21 19-36-1zM1750 2174c-11-12-10-18 4-32 16-16 18-16 31 2 11 14 12 23 4 33-15 17-24 16-39-3zM1752 2093c4-21 33-25 33-3 0 8-8 16-18 18-14 3-18-1-15-15zM1740 1981c-23-74-21-104 11-121 35-19 59 4 59 58 0 40-30 132-43 132-3 0-14-31-27-69z" class="color000 svgShape"/><path d="M1614 1885c-57-136 84-279 219-221 65 28 116 115 103 174-12 51-28 82-43 82-12 0-13-8-8-39 11-68-34-129-103-138-78-10-139 53-128 133 4 35 3 44-10 44-8 0-22-16-30-35zm156-175c34 0 58 7 84 25 33 22 35 23 26 5-34-64-137-77-200-24-42 36-38 49 6 19 26-18 50-25 84-25zM3804 1735c-161-35-289-151-343-313-20-59-21-83-21-582l0-520 468 2 467 3 3 490c1 300-2 511-8 544-26 140-127 274-254 336-111 54-196 65-312 40zm61-108c-45-82-55-117-34-117 15 0 59-51 59-67 0-18 9-17 99 19 46 17 81 37 81 45 0 19-18 16-89-13-35-14-65-23-67-21-3 3 119 95 170 129 8 5 7 11-1 19-9 9-32-3-96-50-47-33-88-61-92-61-4 0 16 27 44 59 36 41 48 62 40 67-8 5-32-14-65-49-29-31-56-57-59-57-3 0 15 41 41 91l47 91 46-6c117-16 250-116 309-232 43-86 54-156 50-339l-3-160-147-3-148-3 0-74 0-75-55 0-54 0-3-77-3-78-67-3-68-3 0-74 0-75-70 0-69 0-3-77-3-78-95 0-95 0-3 392-2 392 80 62c44 34 80 64 80 67 0 2-9 17-21 33-11 16-18 29-14 29 3 0 3 6-2 13-4 6-6 20-5 29 2 13-6 17-43 20-25 2-45 8-45 13 1 10 11 11 65 4 24-3 30 0 29 14-1 9 2 17 7 17 5 0 9 7 9 15 0 8 5 15 10 15 6 0 10 7 10 15 0 8 7 15 15 15 21 0 19 11-10 50-27 36-31 50-15 50 5 0 19-18 30-40 20-40 30-47 44-32 4 4 31 7 59 7l51 1 21 84c20 80 23 85 51 91 16 3 32 4 36 2 4-2-13-40-37-86zm-71 41c-3-18-12-51-19-73l-13-40-1 66c-1 68 3 79 26 79 11 0 13-8 7-32zm-64-50c-1-58-13-51-25 15-6 30-4 37 9 37 13 0 16-11 16-52zm-50-19c15-55 6-60-19-11-19 37-19 52 0 52 5 0 13-18 19-41zm-79-71c9-16 8-19-3-13-28 16-38 28-32 36 7 12 21 3 35-23zm-31-33c16-19 0-19-26 0-16 12-16 14-3 15 9 0 22-7 29-15zm-20-40c18-10 20-14 8-15-23 0-48 11-48 21 0 12 11 11 40-6zm-10-105c-36-12-70-12-70 0 0 6 21 10 48 9 38-1 42-2 22-9zm17-37c-4-3-25-14-47-24-33-15-40-16-40-4 0 8 12 17 28 21 15 3 32 7 37 9 18 6 29 5 22-2zm-2-59c-55-46-82-63-89-57-17 17-1 36 47 58 67 31 79 30 42-1zm795-374l0-60-135 0-135 0 0 60 0 60 135 0 135 0 0-60zm-5-155l0-60-185 0-185 0-3 63-3 62 188-2 188-3 0-60zm5-155l0-60-260 0-260 0 0 60 0 60 260 0 260 0 0-60zm-5-155l0-60-325 0-325 0-3 49c-5 82-31 77 330 74l323-3 0-60z" class="color000 svgShape"/><path d="M3652 1476c-36-33-37-37-37-101 0-64 1-68 37-101 32-29 45-34 86-34 26 0 56 6 67 14 16 12 13 14-31 19-38 4-54 12-76 36-60 67-19 158 76 168 44 5 47 7 31 19-11 8-41 14-67 14-41 0-54-5-86-34zM4014 1441c-105-23-120-29-107-42 8-8 7-24-3-58-7-25-14-49-14-53 0-8 143-88 159-88 31 0 3 29-60 63-39 22-69 41-67 43 2 2 52-10 111-25 67-19 109-26 113-19 10 17-8 26-96 48-119 30-132 42-39 35 53-5 79-3 84 5 11 18 1 21-84 27-45 3-79 8-76 11 2 3 53 15 112 26 60 12 108 26 111 34 5 16-43 14-144-7zM3860 1262c0-10-61-46-80-47-18 0-18 1-1-102 10-62 17-83 29-83 15 0 15 8-4 125-9 56 2 40 50-66 23-51 47-94 54-97 19-6 14 21-19 94-38 83-50 114-44 114 2 0 25-27 51-61 31-41 50-57 57-50 6 6-5 31-37 75-26 36-44 66-40 66 4 0 42-29 86-65 74-60 108-78 108-56 0 4-42 43-92 85-85 70-118 89-118 68zM3566 1186c-31-35-56-68-56-75 0-26 28-7 74 49 27 33 51 58 53 56 3-2-18-49-46-104-46-92-51-112-29-112 4 0 29 43 55 95 26 52 51 95 54 95 4 0-1-33-12-72-22-88-22-88-5-88 8 0 20 26 31 68 29 109 34 105 35-26 0-94 3-123 13-120 8 3 13 41 15 129l3 125-51 13c-27 7-52 17-56 22-10 17-23 9-78-55zM6572 1581c-29-10-64-29-77-41l-25-24-39 22c-47 27-51 27-51 5 0-10-12-40-25-68-14-27-25-63-25-80 0-35 34-115 50-115 16 0 12-14-10-38-11-12-20-26-20-32 0-13-23-13-37 1-22 22-116 19-200-6-26-8 20-89 85-151l33-31-49-7c-27-3-57-12-67-20-18-13-18-17-5-57 8-27 30-60 57-85l43-41-18-37c-13-26-17-49-13-79 6-40 8-42 41-45 75-5 77-7 85-69 16-128 85-343 110-343 10 0 7 16-12 63-28 69-73 237-73 274 0 23 1 23 25 7 29-19 54-13 94 26 67 61 21 180-69 180-44 0-60 15-60 54 0 65 7 74 54 69 38-5 45-2 64 22 14 17 22 42 22 66 0 29 5 39 20 44 40 13 82 59 115 127 36 71 37 88 7 88-9 0-34 5-55 11l-38 10 26 30c14 17 25 35 25 41 0 5 11 19 25 30 42 33 87 219 53 218-7-1-37-9-66-19zm-132-102c0-11-4-17-10-14-5 3-10 15-10 26 0 11 5 17 10 14 6-3 10-15 10-26zm-40-9c0-5-2-10-4-10-3 0-8 5-11 10-3 6-1 10 4 10 6 0 11-4 11-10zm170-70c0-5-10-10-22-9-22 0-22 1-3 9 11 5 21 9 23 9 1 1 2-3 2-9zm-60-14c0-7-11-21-25-30-29-19-32-11-9 22 17 25 34 29 34 8zm-30-76c0-5-8-10-17-10-15 0-16 2-3 10 19 12 20 12 20 0zm77-166c-3-3-12-4-19-1-8 3-5 6 6 6 11 1 17-2 13-5zm-52-22c-3-3-11 0-18 7-9 10-8 11 6 5 10-3 15-9 12-12zm-34-19c13-16 12-17-3-4-10 7-18 15-18 17 0 8 8 3 21-13zm-34-13c27-21 23-24-14-14-13 4-23 13-23 20 0 19 7 18 37-6zm-157-34c0-3-4-8-10-11-5-3-10-1-10 4 0 6 5 11 10 11 6 0 10-2 10-4zm123-123c-7-2-21-2-30 0-10 3-4 5 12 5 17 0 24-2 18-5zm-156-39c-3-3-12-4-19-1-8 3-5 6 6 6 11 1 17-2 13-5zm22-208c-11-9-69-14-69-6 0 6 17 10 37 10 20 0 34-2 32-4zm116-76c3-5-1-10-9-10-9 0-16 5-16 10 0 6 4 10 9 10 6 0 13-4 16-10zM7275 1560c-3-6 22-41 56-78 34-37 120-131 192-209 142-156 145-157 267-167 113-10 192-55 278-160 12-15 22-30 22-32 0-12-50-1-79 19-79 51-107 66-122 67-15 0-98-34-189-78-19-9-57-38-84-65-56-53-50-55-100 43-37 70-74 113-120 137-16 8-134 93-263 189-128 96-238 174-243 174-34 0 15-45 209-189 120-89 247-181 282-204 56-37 69-52 105-120 22-42 58-98 80-124 29-35 40-59 44-93 5-42 7-45 35-45 23 0 40-10 69-43 41-45 78-61 100-43 10 9 15 8 20-4 8-21 49-19 79 5 31 25 177 100 194 100 19 0 97 108 131 180 53 114 135 195 392 389 128 97 236 182 238 190 10 32-45-4-257-164-254-192-342-279-397-394-53-111-95-155-189-200-44-22-97-51-118-65-45-31-47-31-47-7 0 24 72 78 122 92 20 5 44 19 53 32 20 29 19 65-2 70-27 8-166 2-185-7-14-6-18-4-18 13 0 12-3 21-6 21-12 0-94-76-100-92-9-29-25-21-18 10 4 15 33 55 65 89 57 59 73 93 46 93-8 0-19-11-25-24-6-13-31-41-56-62-36-30-49-50-61-91-18-62-41-73-30-15 10 56 35 103 75 139 73 67 150 133 155 133 13 0 82-38 103-57 26-24 74-37 113-31 36 5 39 59 5 82-25 16-36 46-17 46 16 0 224 200 292 280 120 142 203 260 191 272-7 7-13 10-15 7-2-2-43-58-92-124-105-141-347-390-389-401-17-4-36-2-45 4-95 66-132 79-296 98-45 5-55 11-100 62-93 104-329 357-336 360-4 2-10-2-14-8zm415-707c-44-50-80-72-80-49 0 7 9 21 20 31 19 17 90 64 98 65 2 0-15-21-38-47zm238-122c16-10 12-53-4-58-6-2-21 5-34 15-39 32-4 70 38 43zm88-3c7-10-20-38-38-38-13 0-9 38 5 43 20 9 25 8 33-5zm-176-22c0-7 9-25 20-39 37-47-12-45-54 2-15 17-16 23-6 36 16 19 40 20 40 1zm-81-68c-15-28-24-9-14 30 6 23 8 24 16 9 7-11 6-24-2-39zm71-38c0-13-37-13-45 0-3 6-3 15 0 20 7 12 45-5 45-20zM5599 1481c-81-51-142-143-208-316-17-44-31-85-31-92 0-23-38-32-226-53-104-11-225-30-269-40-184-46-306-137-293-221 5-34 28-36 28-2 0 53 42 97 136 143 81 39 197 66 374 85 80 8 164 18 186 21l42 6-19-79c-30-126-58-307-73-478-21-231-23-297-9-302 15-5 19 20 33 227 14 198 40 381 75 529l27 110 56 16c144 42 250 124 307 237 29 58 35 82 35 132 0 84-16 106-79 106-35 0-59-7-92-29zm131-16c19-23 8-122-20-178-46-92-183-196-292-223-37-8-36 0 15 127 59 142 116 224 192 270 36 23 88 25 105 4zM2840 1168c0-61-3-108-7-104-4 4-15 37-23 73-8 37-21 68-27 71-17 5-16-19 2-93 24-98 17-95-41 18-51 101-62 116-77 101-5-5 94-217 109-233 2-2 10 1 17 8 8 6 37 12 64 12l50 2 18 76c10 42 20 82 23 90 3 8-1 12-13 9-14-2-23-21-36-71-9-38-20-71-23-74-3-4-6 46-6 110 0 97-3 117-15 117-12 0-15-19-15-112zM3032 1218c-15-19-102-196-102-208 0-5 6-10 13-10 8 0 20-11 27-25 7-14 17-25 22-25 4 0 8-6 8-14 0-8 4-17 9-20 14-9 166 60 169 78 4 21 7 21-78-14-40-17-75-28-77-26-2 2 37 33 87 70 49 36 90 70 90 76 0 20-29 9-86-33-33-24-72-52-89-62l-30-19 20 24c10 14 35 42 54 62 27 29 32 41 23 50-9 9-26-4-72-53l-61-64 51 102c27 57 50 107 50 113 0 14-15 13-28-2zM2630 1130c0-5 21-37 47-70 25-33 44-62 42-64-2-2-44 28-92 66-60 48-91 68-98 61-7-7 17-33 75-82 47-40 86-74 86-77 0-2-31 12-70 31-79 40-80 40-80 20 0-8 31-30 71-51 39-19 69-37 67-39-2-2-53 7-112 21-64 15-113 21-118 16-15-15 13-28 117-50 115-25 138-27 132-9-4 13 27 65 51 83 12 9 5 23-39 82-48 65-79 89-79 62z" class="color000 svgShape"/><path d="M5517 1023c-33-38-67-218-67-356 0-59-5-79-25-112-13-22-25-46-25-52 0-21 28-15 35 7 8 25 19 25 31 0 12-26 23-17 68 58 36 60 56 77 56 48 0-8 12-28 26-45 33-40 80-42 114-6 18 19 27 22 42 14 28-15 93-7 93 11 0 10-8 14-27 12-48-6-63 11-63 70 0 47-2 53-22 56-27 4-38-30-29-88 5-33 3-41-16-54-47-33-80-8-88 65-7 73-24 70-79-14-56-86-69-70-26 32 69 162 96 339 56 361-27 14-35 13-54-7zm40-85c-6-72-48-224-67-241-21-20-2 140 31 266 6 23 16 37 26 37 13 0 15-10 10-62zM2805 986c-52-23-85-71-85-124 0-109 99-172 196-126 109 52 92 221-25 254-45 12-49 12-86-4z" class="color000 svgShape"/><path d="M3127 925c-114-24-127-29-110-46 8-8 7-25-4-61-8-28-13-51-11-53 21-18 152-84 159-79 19 11 7 24-61 60-38 21-68 40-66 42 2 2 48-8 101-22 111-30 125-31 125-13 0 9-40 25-112 45l-113 30 88 1c66 1 88 4 85 14-3 8-34 14-89 17-46 3-79 8-74 11 6 4 54 15 107 25 106 19 124 26 114 43-9 14-8 14-139-14zM2500 865c0-12 14-15 73-15 39 0 79-5 87-10 13-8 13-10-2-10-10 0-62-10-118-21-67-15-100-26-100-35 0-18 18-17 124 6 50 11 95 20 100 19 6 0-22-15-61-34-67-31-85-47-65-58 4-3 39 9 77 27 93 41 98 45 86 60-6 7-8 16-5 19 3 3 2 12-2 19-5 7-9 20-9 28 0 23-185 28-185 5zM2613 697c-86-67-111-97-80-97 16 0 192 140 192 153 0 24-25 12-112-56zM2961 734c-13-13-27-24-31-24-5 0-20-4-33-9l-24-9 16-88c10-55 21-89 30-92 11-4 13 4 8 39-3 24-8 64-12 89l-5 45 25-50c13-27 36-76 49-107 25-56 46-75 46-42 0 9-18 57-41 106-22 50-38 92-36 95 3 2 24-23 47-56 39-56 70-78 70-50 0 6-21 37-46 70-25 33-44 62-41 65 2 3 42-27 88-66 82-68 110-83 108-57 0 10-147 138-183 159-6 3-22-4-35-18zM2695 693c-72-84-78-94-68-104 7-7 28 10 64 50 29 33 55 59 57 57 2-2-19-49-47-104-46-92-51-112-29-112 4 0 29 43 55 95 26 52 51 95 54 95 4 0-1-33-12-72-11-44-15-76-9-82 10-10 21 11 47 99l18 60 3-117c2-96 5-118 17-118 12 0 15 22 15 128l0 129-29 0c-15 0-42 9-59 21-16 12-32 22-34 22-1-1-21-22-43-47zM7730 464c-11-12-10-18 3-32 16-15 18-15 34 0 13 14 14 20 3 32-7 9-16 16-20 16-4 0-13-7-20-16zM7862 440c-13-16-29-30-37-30-22 0-18-18 5-25 11-4 28-17 36-31l16-24 28 30c15 17 33 30 39 30 6 0 11 5 11 10 0 6-6 10-14 10-8 0-25 14-38 30l-24 30-22-30zM7790 334c-11-12-10-18 3-31 14-14 17-14 32 1 14 13 15 19 5 31-16 19-24 19-40-1zM7900 245c0-8 5-15 10-15 6 0 10 7 10 15 0 8-4 15-10 15-5 0-10-7-10-15zM7732 219c-11-18-11-24 4-40 18-19 18-19 38 0 19 20 19 21 1 41-23 25-27 25-43-1zM7860 96c0-9 7-16 16-16 9 0 14 5 12 12-6 18-28 21-28 4z" class="color000 svgShape"/></g></svg></svg>