<?xml version="1.0" standalone="no"?>
<!DOCTYPE svg PUBLIC "-//W3C//DTD SVG 20010904//EN"
 "http://www.w3.org/TR/2001/REC-SVG-20010904/DTD/svg10.dtd">
<svg version="1.0" xmlns="http://www.w3.org/2000/svg"
 width="840.000000pt" height="859.000000pt" viewBox="0 0 840.000000 859.000000"
 preserveAspectRatio="xMidYMid meet">

<g transform="translate(0.000000,859.000000) scale(0.100000,-0.100000)"
fill="#000000" stroke="none">
<path d="M6529 5366 c-10 -24 -22 -65 -25 -90 -7 -45 -7 -46 -44 -46 -34 0
-38 3 -58 48 -12 26 -32 59 -44 75 -21 25 -26 26 -60 17 -45 -13 -51 -29 -46
-122 l3 -70 -34 -14 c-32 -13 -35 -13 -49 8 -24 36 -94 98 -110 98 -7 0 -27
-8 -43 -17 -28 -16 -29 -21 -23 -58 3 -22 14 -61 24 -88 l18 -47 -27 -19 c-27
-20 -27 -20 -59 5 -17 14 -52 34 -77 45 l-47 21 -24 -23 c-13 -12 -24 -31 -24
-41 0 -23 24 -72 57 -116 l24 -32 -21 -30 c-12 -17 -22 -30 -23 -30 -1 0 -26
9 -55 20 -71 27 -117 26 -136 -2 -26 -37 -19 -58 43 -117 56 -54 58 -58 47
-85 -12 -29 -12 -29 -91 -27 -44 1 -86 -2 -93 -7 -7 -5 -15 -25 -19 -44 -5
-34 -2 -38 37 -67 23 -16 57 -35 77 -42 29 -9 34 -15 29 -33 -3 -11 -6 -28 -6
-37 0 -12 -13 -18 -49 -22 -27 -3 -65 -13 -85 -21 -33 -14 -36 -18 -36 -56 0
-39 3 -42 43 -60 23 -11 56 -20 72 -20 40 0 51 -9 59 -47 7 -30 5 -33 -31 -48
-21 -9 -55 -28 -77 -43 -35 -24 -38 -29 -33 -65 3 -21 8 -42 12 -45 4 -4 46
-7 95 -7 87 0 88 0 98 -29 11 -27 8 -31 -43 -78 -64 -58 -72 -78 -48 -118 21
-36 44 -38 123 -10 70 25 71 24 94 -6 18 -25 18 -26 -1 -53 -27 -36 -63 -107
-63 -124 0 -7 11 -24 24 -36 22 -21 28 -22 59 -12 20 7 54 25 76 42 48 34 49
34 79 9 l23 -19 -20 -67 c-28 -89 -27 -106 8 -127 16 -9 34 -17 41 -17 7 0 38
27 70 60 55 56 61 59 88 49 29 -10 29 -10 25 -77 -6 -85 6 -118 47 -127 41 -9
70 17 102 91 19 44 27 54 48 54 38 0 46 -10 59 -68 6 -29 18 -66 26 -82 13
-25 21 -30 54 -30 36 0 40 3 55 40 9 22 19 59 22 82 8 48 17 58 54 58 21 0 29
-10 48 -54 32 -74 61 -100 102 -91 41 9 53 42 47 127 -4 62 -3 67 20 77 28 13
53 14 53 3 0 -10 69 -81 96 -99 19 -12 25 -11 53 4 38 22 40 53 11 139 l-20
59 22 17 c30 23 31 23 79 -11 22 -17 56 -35 76 -42 31 -10 37 -9 60 12 31 30
26 64 -23 137 l-35 53 21 29 20 29 43 -19 c23 -10 61 -21 83 -25 37 -6 44 -3
63 21 11 15 21 34 21 42 0 8 -27 42 -59 74 -56 57 -59 61 -49 90 10 29 11 30
67 24 31 -3 72 -2 91 2 30 7 36 13 45 46 8 35 7 40 -15 59 -14 11 -49 31 -78
45 -46 20 -53 28 -48 46 3 11 6 26 6 31 0 6 27 17 61 24 98 20 109 27 109 77
0 40 -2 43 -41 58 -23 9 -60 19 -84 23 -40 5 -44 8 -50 40 -3 19 -5 36 -3 37
2 1 27 12 55 25 74 34 97 61 89 105 -6 31 -11 36 -42 42 -19 3 -60 4 -90 2
-53 -5 -56 -4 -70 25 l-16 29 56 49 c64 58 73 77 51 119 -19 37 -52 39 -135
10 l-55 -19 -22 24 -22 25 39 62 c22 33 40 72 40 85 0 26 -32 63 -55 63 -21 0
-95 -38 -122 -62 -16 -15 -25 -17 -40 -9 -40 21 -44 34 -23 89 27 71 26 117
-2 136 -37 26 -58 19 -117 -43 -56 -58 -57 -59 -87 -46 -30 12 -31 14 -26 68
2 31 1 72 -2 91 -6 30 -12 37 -44 46 -34 9 -39 8 -60 -17 -12 -16 -33 -49 -45
-75 -20 -44 -25 -48 -58 -48 -36 0 -36 1 -43 46 -3 25 -15 66 -25 90 -18 40
-23 44 -56 44 -33 0 -38 -4 -56 -44z m197 -197 c80 -14 177 -46 249 -82 87
-43 175 -105 175 -123 0 -9 -27 -44 -59 -77 l-59 -62 -46 33 c-59 42 -175 96
-246 113 -78 19 -250 16 -330 -5 -73 -20 -158 -60 -225 -106 -28 -19 -50 -28
-58 -23 -32 20 -108 113 -105 129 1 9 28 34 58 55 102 70 243 130 352 148 76
12 224 13 294 0z m-231 -259 c8 -13 -14 -350 -26 -377 -5 -13 -15 -23 -24 -23
-22 0 -355 168 -355 179 0 15 114 114 173 149 56 34 178 81 209 82 9 0 20 -4
23 -10z m279 -10 c31 -10 84 -34 117 -51 74 -40 199 -153 184 -167 -5 -6 -88
-48 -183 -93 -135 -65 -175 -80 -185 -70 -11 11 -34 240 -36 359 -1 38 1 42
22 42 13 0 49 -9 81 -20z m-751 -58 c31 -32 57 -61 57 -66 0 -4 -20 -33 -45
-64 -53 -69 -109 -186 -125 -267 -7 -35 -11 -111 -9 -190 l4 -130 -65 -22
c-76 -26 -106 -28 -113 -9 -3 8 -11 52 -17 98 -28 196 27 425 141 595 39 59
89 113 104 113 6 0 36 -26 68 -58z m1241 17 c80 -88 144 -214 182 -355 22 -83
26 -314 6 -381 -15 -51 -25 -52 -122 -20 l-65 22 2 40 c1 22 2 85 3 140 3 158
-35 275 -131 402 -27 35 -49 67 -49 71 0 11 114 122 126 122 6 0 28 -18 48
-41z m-1094 -435 c121 -82 155 -110 155 -127 0 -17 -34 -45 -150 -124 -82 -57
-158 -103 -167 -103 -20 0 -33 41 -49 149 -16 112 16 311 49 311 4 0 77 -47
162 -106z m1015 73 c25 -60 37 -190 25 -274 -14 -106 -30 -153 -49 -153 -9 1
-83 47 -166 104 -118 81 -150 108 -150 126 0 17 31 44 150 125 83 57 156 104
163 104 7 1 19 -14 27 -32z m-504 -4 c94 -48 140 -142 118 -243 -41 -193 -304
-236 -404 -66 -39 67 -43 131 -12 198 56 123 181 169 298 111z m215 -484 c93
-45 172 -87 176 -93 10 -16 -66 -91 -142 -140 -77 -50 -159 -85 -219 -93 l-43
-6 7 109 c17 262 23 299 51 304 0 0 77 -37 170 -81z m-422 63 c2 -4 9 -79 15
-167 6 -88 13 -171 16 -185 8 -50 -6 -55 -86 -30 -41 12 -102 37 -136 56 -65
36 -183 138 -183 158 0 14 317 175 347 175 12 1 24 -2 27 -7z m-510 -78 c86
-168 214 -281 390 -346 68 -26 100 -31 201 -35 146 -7 209 7 343 73 124 60
228 161 290 281 23 45 46 85 51 87 13 8 162 -45 168 -59 5 -15 -53 -136 -97
-200 -180 -262 -511 -413 -821 -375 -244 29 -463 155 -611 350 -56 73 -122
204 -115 224 6 14 143 66 161 62 6 -1 24 -29 40 -62z"/>
<path d="M6457 5143 c-14 -13 -6 -24 16 -21 20 3 23 -2 27 -49 3 -28 9 -55 12
-59 13 -12 21 25 15 71 -4 42 -3 45 19 45 13 0 24 5 24 10 0 11 -103 14 -113
3z"/>
<path d="M6615 5089 c-26 -58 -27 -85 -3 -61 18 18 66 15 77 -5 20 -36 23 -2
6 62 -24 86 -43 87 -80 4z m58 -9 c4 -15 0 -20 -14 -20 -20 0 -23 8 -13 34 7
20 20 13 27 -14z"/>
<path d="M6767 5068 c-15 -49 -16 -63 -5 -69 9 -6 16 0 22 17 10 32 29 26 36
-11 3 -16 11 -30 19 -33 11 -4 13 2 8 26 -4 21 -2 32 8 36 9 3 15 18 15 36 0
26 -6 33 -35 46 -19 7 -38 14 -42 14 -4 0 -16 -28 -26 -62z m74 22 c12 0 12
-27 0 -34 -16 -10 -41 6 -41 26 0 14 5 18 16 14 9 -3 20 -6 25 -6z"/>
<path d="M6317 5102 c-22 -25 -21 -75 1 -95 27 -25 78 -22 96 5 34 48 7 108
-48 108 -19 0 -40 -8 -49 -18z m83 -18 c10 -11 11 -23 4 -42 -17 -48 -84 -38
-84 12 0 43 53 63 80 30z"/>
<path d="M6927 5048 c3 -18 7 -35 9 -37 2 -2 -4 -17 -12 -33 -22 -43 -2 -60
22 -19 10 18 34 37 58 46 29 12 36 19 26 25 -8 5 -25 3 -41 -6 -28 -14 -28
-14 -35 21 -3 20 -12 35 -20 35 -10 0 -12 -9 -7 -32z"/>
<path d="M6168 5044 c-35 -18 -35 -24 -1 -82 34 -60 32 -57 44 -45 8 8 8 17 0
31 -15 28 5 34 41 14 34 -19 50 -7 20 14 -12 8 -22 25 -22 38 0 44 -33 57 -82
30z m52 -30 c0 -20 -30 -30 -41 -13 -6 9 -3 18 8 26 18 14 33 8 33 -13z"/>
<path d="M6487 4469 c-101 -53 -130 -210 -54 -296 98 -112 267 -90 328 42 41
89 11 195 -69 246 -38 24 -56 29 -106 29 -41 -1 -74 -7 -99 -21z m133 -29 c0
-11 6 -20 13 -20 7 0 27 -14 45 -31 56 -55 55 -137 -3 -188 -46 -40 -93 -48
-141 -25 -53 27 -77 64 -77 118 0 51 22 90 64 114 16 10 29 25 29 35 0 13 8
17 35 17 28 0 35 -4 35 -20z"/>
<path d="M5897 3913 c-54 -33 -71 -53 -44 -53 24 1 116 65 109 77 -5 8 -25 1
-65 -24z"/>
<path d="M7325 3910 c-8 -16 -18 -30 -21 -30 -3 0 -26 12 -50 26 -28 17 -49
23 -55 17 -8 -8 90 -73 112 -73 14 0 50 78 39 85 -5 3 -16 -8 -25 -25z"/>
<path d="M5927 3858 c-40 -27 -56 -43 -49 -50 7 -7 20 -3 41 11 34 25 38 17
19 -36 -20 -56 1 -60 60 -11 31 27 47 47 42 52 -6 6 -19 1 -33 -12 -33 -32
-38 -27 -22 19 24 66 9 73 -58 27z"/>
<path d="M7146 3852 c-12 -11 -5 -32 25 -81 35 -56 49 -64 49 -27 0 25 23 51
46 51 8 0 15 4 16 9 3 11 -128 57 -136 48z m69 -51 c0 -23 -19 -23 -33 0 -12
19 -11 20 10 17 13 -2 23 -9 23 -17z"/>
<path d="M6060 3781 c0 -6 5 -13 10 -16 17 -10 12 -23 -25 -64 -25 -27 -32
-42 -24 -47 8 -4 26 9 48 34 30 35 39 40 54 31 36 -21 31 3 -8 36 -41 35 -55
42 -55 26z"/>
<path d="M7085 3780 c-4 -6 2 -22 14 -34 31 -33 26 -37 -24 -21 -26 7 -47 9
-51 4 -6 -11 63 -109 77 -109 14 0 10 22 -8 42 -23 25 -11 32 31 18 64 -21 69
-1 16 58 -31 34 -50 49 -55 42z"/>
<path d="M6146 3647 c-20 -29 -36 -55 -36 -59 0 -9 64 -48 79 -48 20 0 11 15
-20 34 -24 14 -28 21 -18 32 8 10 16 11 31 3 26 -14 38 -1 15 15 -24 18 -22
40 3 32 11 -3 29 -9 40 -12 34 -11 22 10 -19 33 l-39 22 -36 -52z"/>
<path d="M6916 3655 c-31 -31 -27 -84 8 -107 39 -26 106 10 106 57 0 53 -77
87 -114 50z m86 -30 c9 -21 8 -28 -7 -45 -31 -34 -75 -20 -75 25 0 48 62 63
82 20z"/>
<path d="M6268 3575 c-20 -49 -23 -65 -13 -69 8 -3 16 5 19 20 10 37 40 28 44
-14 4 -38 22 -44 22 -7 0 14 9 34 20 45 32 32 23 51 -31 74 l-36 15 -25 -64z
m79 2 c-2 -7 -13 -10 -23 -9 -25 5 -28 8 -20 27 5 13 10 14 26 5 12 -6 19 -17
17 -23z"/>
<path d="M6831 3563 c20 -59 34 -81 45 -70 11 11 -32 122 -49 125 -15 3 -14
-3 4 -55z"/>
<path d="M6735 3595 c-5 -2 -22 -6 -37 -9 -33 -8 -38 -29 -6 -24 20 3 24 -3
33 -50 5 -29 15 -52 20 -50 11 3 12 17 1 71 -6 34 -5 39 13 44 12 3 21 9 21
14 0 9 -25 11 -45 4z"/>
<path d="M6420 3583 c-1 -5 -7 -34 -14 -65 -12 -48 -12 -58 -1 -58 7 0 17 17
23 38 l9 37 22 -47 c12 -27 28 -48 35 -48 13 0 26 60 26 116 0 37 -17 28 -25
-13 l-7 -38 -21 43 c-18 36 -46 57 -47 35z"/>
<path d="M6581 3557 c-22 -56 -34 -108 -27 -114 4 -5 12 0 17 10 13 22 65 23
73 0 4 -11 10 -13 16 -7 13 13 -38 134 -57 134 -7 0 -17 -10 -22 -23z m39 -54
c0 -7 -7 -13 -15 -13 -16 0 -19 9 -9 35 5 13 8 14 15 3 5 -7 9 -19 9 -25z"/>
<path d="M846 4800 c-60 -5 -112 -12 -117 -17 -5 -5 -8 -192 -7 -424 l3 -414
70 0 70 0 3 169 2 169 62 -7 c33 -3 71 -6 83 -6 20 0 33 -23 96 -165 l73 -165
73 0 c65 0 73 2 73 19 0 11 -34 95 -75 187 -41 92 -74 168 -72 169 14 7 86 64
99 80 31 35 51 122 44 184 -22 190 -147 247 -480 221z m259 -146 c93 -44 96
-181 5 -226 -26 -14 -60 -18 -137 -18 l-103 0 0 124 c0 90 3 126 13 129 31 13
190 6 222 -9z"/>
<path d="M2225 4705 c-5 -2 -29 -9 -52 -15 l-43 -11 0 -54 c0 -51 -2 -55 -23
-55 -43 0 -59 -21 -55 -75 3 -50 3 -50 41 -53 l37 -3 0 -163 c0 -308 26 -352
203 -350 111 2 123 11 111 81 l-9 48 -67 3 c-46 2 -70 8 -80 19 -10 12 -13 59
-13 187 l0 171 83 3 82 3 0 58 c0 69 -2 71 -101 71 l-69 0 0 70 c0 71 -5 79
-45 65z"/>
<path d="M4940 4696 l-45 -12 -3 -57 c-3 -52 -5 -57 -27 -57 -48 0 -55 -9 -55
-71 l0 -59 39 0 40 0 3 -202 c3 -227 11 -258 71 -293 34 -21 154 -27 210 -12
27 7 28 10 25 65 l-3 57 -65 3 c-99 4 -100 7 -100 213 l0 169 85 0 85 0 0 59
c0 69 -2 71 -100 71 l-69 0 -3 68 c-3 76 -8 80 -88 58z"/>
<path d="M1599 4567 c-99 -28 -151 -100 -170 -233 -27 -192 32 -346 148 -390
56 -22 191 -24 246 -5 82 28 136 100 156 206 34 184 -18 354 -124 405 -57 28
-188 36 -256 17z m186 -139 c42 -33 56 -78 56 -178 0 -149 -33 -195 -136 -195
-53 0 -68 4 -89 24 -34 32 -46 78 -46 179 0 94 14 138 55 170 39 31 121 31
160 0z"/>
<path d="M2660 4568 c-95 -12 -105 -21 -94 -85 l9 -48 136 4 c128 3 138 2 158
-18 13 -13 21 -34 21 -56 0 -39 7 -36 -156 -53 -160 -16 -209 -60 -209 -187 0
-117 50 -185 148 -199 43 -7 184 16 216 34 9 5 29 1 50 -11 20 -10 48 -19 63
-19 l28 0 0 253 c0 223 -3 257 -19 292 -44 97 -132 120 -351 93z m230 -423 l0
-74 -37 -10 c-36 -9 -92 -14 -141 -12 -28 1 -56 58 -46 95 10 43 41 61 113 67
125 11 111 19 111 -66z"/>
<path d="M3760 4569 c-111 -14 -110 -14 -110 -63 0 -76 -5 -74 149 -68 l137 5
22 -28 c12 -15 22 -40 22 -56 0 -32 -5 -33 -140 -44 -176 -13 -230 -59 -230
-192 1 -102 47 -171 132 -194 43 -11 142 0 212 24 35 12 43 11 75 -5 20 -10
47 -17 61 -16 l25 3 3 234 c2 187 -1 245 -13 287 -32 111 -125 141 -345 113z
m218 -425 c3 -85 5 -83 -113 -91 -92 -6 -103 0 -112 64 -8 61 18 84 103 93
123 13 119 16 122 -66z"/>
<path d="M4415 4571 c-75 -19 -142 -77 -166 -148 -9 -25 -14 -85 -14 -173 0
-125 2 -139 26 -191 52 -110 159 -152 330 -129 136 18 129 14 129 75 0 30 -5
57 -10 60 -6 4 -58 1 -114 -6 -89 -11 -110 -10 -142 2 -53 20 -75 61 -81 158
-7 96 9 170 44 202 21 21 34 24 101 24 42 0 104 -2 137 -5 l60 -5 0 60 0 60
-75 12 c-84 13 -180 15 -225 4z"/>
<path d="M3207 4558 c-16 -12 -17 -40 -15 -313 l3 -300 68 -3 67 -3 0 209 c0
186 2 211 18 224 27 24 94 56 135 63 l37 7 0 65 0 66 -41 -7 c-22 -4 -63 -18
-89 -31 -60 -31 -60 -31 -60 -1 0 13 -7 27 -16 30 -27 10 -89 7 -107 -6z"/>
</g>
</svg>
